<mxfile host="65bd71144e">
    <diagram id="YZdDiyIyqaVG7t1TJf6J" name="Page-1">
        <mxGraphModel dx="711" dy="601" grid="1" gridSize="10" guides="1" tooltips="1" connect="1" arrows="1" fold="1" page="1" pageScale="1" pageWidth="850" pageHeight="1100" math="0" shadow="0">
            <root>
                <mxCell id="0"/>
                <mxCell id="1" parent="0"/>
                <mxCell id="7" style="edgeStyle=none;html=1;exitX=1;exitY=0.5;exitDx=0;exitDy=0;" edge="1" parent="1" source="2">
                    <mxGeometry relative="1" as="geometry">
                        <mxPoint x="840" y="160" as="targetPoint"/>
                    </mxGeometry>
                </mxCell>
                <mxCell id="2" value="&lt;h1&gt;Test Page&lt;/h1&gt;" style="rounded=1;whiteSpace=wrap;html=1;verticalAlign=top;" vertex="1" parent="1">
                    <mxGeometry x="270" y="30" width="370" height="260" as="geometry"/>
                </mxCell>
                <mxCell id="3" value="Test Form" style="shape=process;whiteSpace=wrap;html=1;backgroundOutline=1;verticalAlign=top;" vertex="1" parent="1">
                    <mxGeometry x="270" y="80" width="370" height="170" as="geometry"/>
                </mxCell>
                <mxCell id="5" style="edgeStyle=none;html=1;exitX=0;exitY=0.5;exitDx=0;exitDy=0;" edge="1" parent="1" source="2">
                    <mxGeometry relative="1" as="geometry">
                        <mxPoint x="80" y="160" as="targetPoint"/>
                    </mxGeometry>
                </mxCell>
                <mxCell id="8" value="Step 1" style="shape=step;perimeter=stepPerimeter;whiteSpace=wrap;html=1;fixedSize=1;" vertex="1" parent="1">
                    <mxGeometry x="310" y="135" width="100" height="60" as="geometry"/>
                </mxCell>
                <mxCell id="13" value="Step 2" style="shape=step;perimeter=stepPerimeter;whiteSpace=wrap;html=1;fixedSize=1;" vertex="1" parent="1">
                    <mxGeometry x="405" y="135" width="100" height="60" as="geometry"/>
                </mxCell>
                <mxCell id="14" value="Step 3" style="shape=step;perimeter=stepPerimeter;whiteSpace=wrap;html=1;fixedSize=1;" vertex="1" parent="1">
                    <mxGeometry x="490" y="135" width="100" height="60" as="geometry"/>
                </mxCell>
                <mxCell id="15" value="Image Options&lt;div&gt;&lt;br&gt;&lt;/div&gt;" style="shape=cylinder3;whiteSpace=wrap;html=1;boundedLbl=1;backgroundOutline=1;size=15;" vertex="1" parent="1">
                    <mxGeometry x="510" y="350" width="60" height="80" as="geometry"/>
                </mxCell>
                <mxCell id="16" value="" style="endArrow=none;html=1;exitX=0.5;exitY=0;exitDx=0;exitDy=0;exitPerimeter=0;entryX=0.5;entryY=1;entryDx=0;entryDy=0;" edge="1" parent="1" source="15" target="14">
                    <mxGeometry width="50" height="50" relative="1" as="geometry">
                        <mxPoint x="500" y="290" as="sourcePoint"/>
                        <mxPoint x="540" y="290" as="targetPoint"/>
                        <Array as="points">
                            <mxPoint x="540" y="320"/>
                        </Array>
                    </mxGeometry>
                </mxCell>
                <mxCell id="20" value="" style="endArrow=none;html=1;entryX=0.278;entryY=1;entryDx=0;entryDy=0;entryPerimeter=0;" edge="1" parent="1" target="15">
                    <mxGeometry width="50" height="50" relative="1" as="geometry">
                        <mxPoint x="480" y="440" as="sourcePoint"/>
                        <mxPoint x="530" y="440" as="targetPoint"/>
                    </mxGeometry>
                </mxCell>
                <mxCell id="22" value="" style="endArrow=none;html=1;entryX=0.689;entryY=1;entryDx=0;entryDy=0;entryPerimeter=0;" edge="1" parent="1" target="15">
                    <mxGeometry width="50" height="50" relative="1" as="geometry">
                        <mxPoint x="600" y="440" as="sourcePoint"/>
                        <mxPoint x="550" y="440" as="targetPoint"/>
                        <Array as="points"/>
                    </mxGeometry>
                </mxCell>
                <mxCell id="23" value="" style="endArrow=none;html=1;" edge="1" parent="1">
                    <mxGeometry width="50" height="50" relative="1" as="geometry">
                        <mxPoint x="440" y="480" as="sourcePoint"/>
                        <mxPoint x="480" y="440" as="targetPoint"/>
                    </mxGeometry>
                </mxCell>
                <mxCell id="24" value="" style="endArrow=none;html=1;" edge="1" parent="1">
                    <mxGeometry width="50" height="50" relative="1" as="geometry">
                        <mxPoint x="600" y="440" as="sourcePoint"/>
                        <mxPoint x="640" y="480" as="targetPoint"/>
                    </mxGeometry>
                </mxCell>
                <mxCell id="25" value="Upload Image from Device" style="whiteSpace=wrap;html=1;aspect=fixed;" vertex="1" parent="1">
                    <mxGeometry x="320" y="420" width="120" height="120" as="geometry"/>
                </mxCell>
                <mxCell id="28" value="Allow camera access for new image" style="whiteSpace=wrap;html=1;aspect=fixed;" vertex="1" parent="1">
                    <mxGeometry x="640" y="420" width="120" height="120" as="geometry"/>
                </mxCell>
                <mxCell id="33" value="" style="shape=image;verticalLabelPosition=bottom;labelBackgroundColor=default;verticalAlign=top;aspect=fixed;imageAspect=0;image=data:image/png,iVBORw0KGgoAAAANSUhEUgAAA/wAAAIECAYAAACkFyU7AAAAAXNSR0IArs4c6QAAAARnQU1BAACxjwv8YQUAAAAJcEhZcwAADsMAAA7DAcdvqGQAAH00SURBVHhe7f17cFz3nd95f9CNblzZICCCpMQGaV6sCyDriSRv3LA9kTMX0FI948lWAZZSmd1UkZKqJhmHoEg9k2SqSJFVz7PjXVJAPZv8sbKJVLKjWkmAMjujiseEJlPDMiW0NiPxWdloyrJImuymTBIULgdoAH3F8wfQLfQBcM5pECAbp9+vKpfFbzcal758z/f8vr/vqdi5c+ecNoi9e/dqz549evfdd/Oxf/yP/7F+9atfqb6+Xlu2bNH58+clSdXV1XryySf1q1/9SjU1NfrGN76hVCqlbDarZDKpDz74QKOjo4seHQAAAACAu2Nubmkpbo6Z/71SbCUec8Btstmsrl69qrfeekt/8Rd/oZ/+9Kf69a9/rYcffliVlZXmuwMAAAAAcE9UVFQs+fdKseX+Z7ahCv7p6WnNzc3J45n/sf1+v6qrq5VIJApuq6iokN/vV1VVlTKZTMFjpNNpTU5OqrKyUj6fr+A2AAAAAADuhuUKdDks8ldivt+GKvhHR0dVU1Oj7du3S5KCwaDm5uY0Pj4uwzDybf1er1fbt29XNpvV9PS0du3apX/0j/6Rampq5PP5FAgElEgklEwmzd8CAAAAAIC7wqqAd3Kb7f820h5+Sdq+fbt++7d/WxUVFUqlUjp37pxu3rwpr9ernTt3qr29XZI0NTWl9957T1988YXq6ur06KOP6sEHH1Q6ndbt27f1wQcfyDAM88MDAAAAAHDXOd2b7/R+kjZewZ/j8/mUSqXMYVVUVMjr9SqdTptvksfjkcfjWfY2AAAAAADutWIKejsbqqV/seWKfS38cVYq6LPZ7Iq3AQAAAABwr1m18hdrwxb8AAAAAAC41eK9+KtFwQ8AAAAAQAlbMozP4ckACn4AAAAAADYo8wmAxf+j4AcAAAAAwIUo+AEAAAAAcCEKfgAAAAAAXIiCHwAAAAAAF6LgBwAAAADAhSp27tw5Zw6Wqo6ODv3u7/6uOQwAAAAAgCv85//8nxUOh83hVdlQBf+hQ4d06NAhcxgAAAAAAFd4+eWX9fbbb5vDq0JLPwAAAAAALkTBDwAAAACAC1HwAwAAAADgQhT8AAAAAAC4EAU/AAAAAAAuRMEPAAAAAIALUfADAAAAAOBCFPwAAAAAALgQBT8AAAAAAC5EwV+ihocjikQumsPr5m5/PwAAAADA+qLgL0HDwxFVVEj337/dfNO62bt3jzZvbtB7771nvgkAAAAAsAGVZcEfi8XMIcdW+7WGYcgwDHN4WbOzM7r//gfU2NhovumOzM7OanZ21hyWJFVXV+uBBx7QzMzytwMAAAAANpaKnTt3zpmDperQoUM6dOiQOeyYYRj6/rPPKRAIKBaL6UevvaYTJ0/qrTff0LPPPqdvhEKqkBQMBjUwMKBQKKTDh7v17LPPqbu7W729vZpbeJyuzk6dHRxUOBxWKBRSSzCos4ODam1tVSwW00//+if67tPP6P33zqunp1dnBwcVCATU1tqq48ePmX+0Ah9++KH27NmrxsbNBfHXfvRj/e7v/LZe+9GP1dXZqSeffEI//OH/rCeffEKXL1/R5StXtGf3bjU2Nmo4EtED99+vsfFxHfpXP9D58+9pOBJRTXW1Ghsb9fu///9UdXV1weNL0t/8zX/V7/7u75jDAAAAAIC74OWXX9bbb79tDq9KWa3wR6MxVUh69fQpnT51Kr/i/tKRo/pGKKSXDncX3L9/YCC/om8YhoYjEb16+pSOHzum/fs79OrpUwoGg3rrzTcUCoW0v6NDb735hlpbWzU8HJEkhcNhDYXD+ulf/0RvvfmGNi2cbLhTf/Nf/2t+tf7JJ7+uF198QY2NjXrxxRe0Z89utbW16cUXX9AD99+vv//7D/XhRx/p0L/6gV588QVVV1frww8/ND8kAAAAAMBFyqrgb2tr1YEDB/TSkaM6efKkAoGAwuGwIpGIJpdptz/c3a2XjhyVJAUCAR0/dkwvHTmqI0fnY2ZD4bCefvoZxWIxtbeHpIWTDG2trfn7vHS4W8FgcNFXrc7v/s5v6913/8Yczrt8+bL+v//rv9Pnv/mNamqqtWfPnvxtDzxwvz7/zY2C+wMAAAAA3KWsCv7h4YhisZjeevMN7QgG8+34b735hs4ODmpoKFxw//b20PxqfWT+68LhsN568w3t7+hYcl9Jag+F9Nd//RNp4XtJUmtrq84ODioWi8kwDL3wwotrssL/5JNP6je/+Y3GxsfNN0mS9uzZo3/1gz9W4+bNamxsVGR4WGNjY5qdndXwcER7du82fwkAAAAAwEXKquBva2vVhGHou08/I8MwFAqFFAgEFAgEdPrUKfX09kqSGhoC+VX43Ip8MBjUpkBA3336GQ1HIvkV/Nz9co+jhcLfMAwFg0G1tbXqcHe3nn/hRX1/YU7Aalf4GzfP7+nP/X9XV2f+vxfHq6trVFNdJUm6//77JUmdnZ36T//7n+t/e+1H2rt3j5588on81wEAAAAA3KeshvZtFB9++KEeeOCBfLF+t8zOzur8+fcY2gcAAAAA9whD+1zuySef1KVLl/Xee++Zb1o3H374oc6ff4+VfwAAAABwCQr+EvXtb39L3/rWt8zhdfPkk0/qd3/3d9TY2Gi+CQAAAACwAVHwAwAAAADgQhT8AAAAAAC4EAU/AAAAAAAuRMEPAAAAAIALUfADAAAAAOBCFPwAAAAAALgQBT8AAAAAAC5EwQ8AAAAAgAtR8AMAAAAA4EIU/AAAAAAAuBAFPwAAAAAALkTBDwAAAACAC1HwAwAAAADgQhT8AAAAAAC4EAU/AAAAAAAuRMEPAAAAAIALUfADAAAAAOBCFPwAAAAAALgQBT8AAAAAAC5EwQ8AAAAAgAtR8AMAAAAA4EIU/AAAAAAAuBAFPwAAAAAALkTBDwAAAACAC3kbGhpeMQdLVSgUUigUMocdGx6O6Ny5c4pEIvn/tbW1KhKJ6O/+7pwmJw0Fg8GCrwmHwxoaCquhIaCJCUODg4NLvn5oKKyKCikQCEiS+vsHFIlEdP16THv37tXg4KA++uhC/mvM32dwcFBVVVUKBAIyDEN/9VfvqK2tVZI0NBSWYRjaurU5/9gtLUFVVVVpeDiiy5cvKRgMKhqN6YMPwtq7d2/+Mf3+Kl28GMn//IFAQIODg2publYikdBf/dU7+Z8RAAAAAHDvvfvuu7p48aI5vCplVfBfuHBB586d05m+PiUSCd0eGVEkEtGf/fCHaggE9Oevv66PLlzQ/v0dkqRIJKJ/+cc/UEswqBMnT6piIdY/MKBYLKZJw9D+/R169rnnNBQOq6urU5L09DPPqK21VX937pz+7Ic/1N69e/V3587p9ddfV/VCYZ8r6A3D0PeffU6JRELf+c5TGhkZ0bPPPSdJam8Pqbe3VyMjI2pvD+ns2UH98Q9+oKeeekotLUG9/vrrCofD2r+/QxUV0veffU5PPfWUEomE/vgHP1CFpJ7e3vzPv39/h/7lH/9A3/ve7+sP/sl/rwpJf3funGKxmNrbV/93BQAAAACsjbUs+MuqpX///g6dPn1Kba2tOnjggI4fP6ae3l699eYbOn78mH761z9RLBbT0FBYWugICAaD6urq1I9ee00dHfNf3x4KqauzU6dPn1I4HFYwGFQkEpFhGPnvdfhwt378o9cUi8XU1dWpV44fUyAQ0OnTp/InBiTp7NlBhUIhnR0czH99IBDIn1RY7OzgoDo7O9XT21sQ18LXHD92TCdOntTJkyd1uLtbhmGoPRTSwYMHdPrUqfx9JyYMxWIxHTx4QD/+0WtqbZ0/+QAAAAAAcI+yKvjNDGO+tX5xe31LMKhweL7g37+/Q8FgUN9/9jkdPXp00Vd+6a3+AXV1durggQM6c6YvH3/22ef09NPPqKOjI9/qv5yBgQEdPHBA7aGQ+vsHpIXi/cCBA3rpyJffMxqNaXBwUK+ePrXk5EJO7kTCcCSirq5OHT7crTlJ3336GfUuOknQ0BDQ6VOn9NKRo/ru088oEoksehQAAAAAgBuUdcGf2zO/eCV9KBzObxs4e3ZQ+zs69P575/VIa6v6+r4s6LVQhA8MDKint1dn+vp0ZtHtp0+f0oEDB/InD5YTjcY0FA7ryNGjOjs4qLODg/nbnj94QFr4ebQwS8AwDH3zW9+WpIKTC4vlug+0sN//4IEDev+989oUCORPKMRiMcViMf30r3+iH732WsHPDQAAAABwh7Iv+Lu7u/X9Z5/TkYXV7o6Ojvx+9uDC3vcjR44qvOhEQE44HFZXZ6fef++8fvHzj9XaOj/AL/e1XV2dMgxj2dV4LeyvX/z1kcj8gL2c48eO5U9G9PT26s033tD7750vKNKHwmEdOXJUR44cXbIFIBAI6IUXX8z//B0d87MJNm2a3zLwwgsv6uTJk0t+LwAAAADAxlexc+fOOXOwVB06dEiHDh0yh4s2PBxRS0sw32ofjcYUiczv188N08tZ7rbc10ejsSWPo4UV9NxJg6GhsNrbQzIMQ9ForODxzT/H8HAk33Ww+HtpYfvB4sF6Q0PzswMWF/ltba2amJg/udDSMr9NIffzt7eHFAgE8j9P7jG0MBwQAAAAAHDvvfzyy3r77bfN4VUpy4IfAAAAAIBStJYFf1m39AMAAAAA4FYU/AAAAAAAuBAFPwAAAAAALkTBDwAAAACAC1HwAwAAAADgQhT8AAAAAAC4EAU/AAAAAAAuRMEPAAAAAIALUfADAAAAAOBCFPwAAAAAALgQBT8AAAAAAC5EwQ8AAAAAgAtR8AMAAAAA4EIU/AAAAAAAuBAFPwAAAAAALkTBDwAAAACAC1HwAwAAAADgQhT8AAAAAAC4EAU/AAAAAAAuRMEPAAAAAIALUfADAAAAAOBCFPwAAAAAALgQBT8AAAAAAC5EwQ8AAAAAgAtR8AMAAAAA4EIU/AAAAAAAuBAFPwAAAAAALkTBDwAAAACAC1HwAwAAAADgQhT8AAAAAAC4EAU/AAAAAAAuRMEPAAAAAIALUfADAAAAAOBCFPwAAAAAALgQBT8AAAAAAC5EwQ8AAAAAgAtR8AMAAAAA4EIU/AAAAAAAuBAFPwAAAAAALkTBDwAAAACAC1HwAwAAAADgQhT8AAAAAAC4EAU/AAAAAAAuRMEPAAAAAIALUfADAAAAAOBCFPwAAAAAALgQBT8AAAAAAC5EwQ8AAAAAgAtR8AMAAAAA4EIU/AAAAAAAuBAFPwAAAAAALkTBDwAAAACAC1HwAwAAAADgQhT8AAAAAAC4EAU/AAAAAAAuRMEPAAAAAIALUfADAAAAAOBCFPwAAAAAALgQBT8AAAAAAC5EwQ8AAAAAgAtR8AMAAAAA4EIU/AAAAAAAuBAFPwAAAAAALkTBDwAAAACAC1HwAwAAAADgQhT8ANZdKpVSJpMxhwEAwDoh9wIQBT+AuyGZSiuZSpvDAABgnSRTac3NmaMAyg0FP4B1V1dbo5rqKnMYAACsk7raGlVWes1hAGWGgh/AushkMpqdTZjDmp6eocUQAIB1kEqllEgkzWFNT89ojuV+oCxR8ANYF3Nzksez9COmoqKCFkMAANbB3Nx8njWrqKhQJpM1hwGUgaVH4wCwBiorvfL7feawamqqaTEEAGAd+P0+ci+AAhT8ANZMJpPR9PSMObyiyak4LYYAANyBYnPvhDFJ7gXKCAU/gDVTUVGhyspKc3hFfp9v2dZDAADgzNycyL0AVkTBD2DNeDyeZVsJV1JV5TeHAABAEVbaQreSmppqcwiAi1HwA7gj2WxWY+MT5nDRRsfGzSEAALCMbDarCWPSHC7a7S9GzSEALkPBD+COeDwe1dXWmsMFbtwckTE5ZQ4XCGzaZA4BAIBleDwebaqvN4cL/Praddu9/eRewP0o+AHcMbtWwu3bmhXYZH1gwvRgAACc83is9+F/ZecO1dbWmMMF7PI3gI2Pgh/Aqtwa+cIcKpBOZ5ROZ8zhZWOLZbNZ2vsBADBxkh/vJPeO3Ka9H3AjCn4Aq7K1+T5zqMD09Ixu3Bwxh3X9+g3LFkOPx6Omxs3mMAAAZc1Jfhwbm9DY2NK5OlevXVcikTSH8zwej5q3NJnDAFyAgh+AY8VctzcQqFdwx3ZzWLt22bcYLlbM9wQAoJw1NzepuXlp4b53z86iroxD7gXcg4IfgGNfjI7bHgRYrd6b2d03lUppdJmVCgAAysXI7VHL3JtOZyxX783shuimUilNTsXNYQAbFAU/AMe23NeoioqVhwQlEkkZhvWBxGKjYxOW+wp9Pp/ua7JuXwQAwM2atzRZ5t5MJrNsG/9KRket7+vz+WwH7QLYOCj4AViyWlUwq6rya/v2ZnN4RcEd2x1P55+bm1Mms/LJAQAA3KKYfFds7v3Krh3m0IrIvcDGR8EPwNKEMalUKm0OF1iLtnu7x0gmU5qemTWHAQBwncmpuO0J97WYqm/3GNMzs5otYrsAgNJDwQ/A0uaGgHy+SnM4L53OKGPRlq+F/YDx+LQ5XCBpc0BRVeXXpvo6cxgAANfZ3BCwbONPpzOS9fkApVIpJVMpczjPyWPU1daorohBuwBKDwU/gCVSqZTjFr7KSu+yE4EXuxb7XKPj1tcOLqYdMZPJOP75AADYCFKplO2qfo6T3PvZlasaG1s59zp5jMWKOTYAUDoo+AEskUylLYfpSVLs+g3b++Ts3b1LLTseMIeXlUgkFbt+wxwukE5nlLTZZgAAwEaSTKWVyWTN4QK/vnbdHFrRIw/u07atzk6mJxJJ2/Z+J8cGAEoPBT+AJepqa2yv11tbW2M5cC8ejy/bxj82Nm7ZYuj1em2nA1dV+VVTXWUOAwCwYdXZ5FVJatrcYA4VWCn33rx12zb3Vvmt876TYwMApYeCH4C00CZfzHV8mxqtDzqm4tPLtvGPjk8omVz5oKOy0qtAwLrgX2xmZpYWQwDAhpRKpWwH4y5mlx9HxyeWzb1T8fia5t7p6RnH2w8A3FsU/AAkybaNUAtt/NPTM+bwsrZtbV62jX/v7l2qr6s1h5dlTE7pxo0Rc3gJjjkAABtRNjtnWzhfunzNcSt9y44H7kruraiocHTcAODeo+AHIEny+322rXrbtzWr1mJabzweV/T65+bwii5fuWrZYhjYVK8tW6wHCtXUVNu2QAIAUIqqqvzy+33mcIFdO3dY5rm1zr21NTXkXsBFKPiBMpbJZByv2Guh5c/KnGTZMmjm8/ls72/3PRdzct1iAADupbXOvclkSn6f9UmDxZzkXbvvuRi5FyhtFPxAGauoqFBlZaU5XCB2/YaMySlzeFn1dXXau3uXObyiluADjlsMR26P2k4Q9vt8tPcDAEra3Jxsc++vr113nHsbGzc7nsYvSQ8/tM/xCQInxwCVXq8qKirMYQAlgoIfKGMej8e2lTC4Y7vl1Px4PK7LV66aw0WzazFs3tKkZpsWw6oqvzweDjoAAKWrstJrm3u/snPHXcm9H//iojlUwO4YQAvt/QBKFwU/UGay2awmjElzeNV8Pr/WYlHd5/M5XnFwMrxobHyCFkMAQEnIZDK2K+VOcluOz+dXncMOOSuNNpf5W8zJzzc6tvQKAQDuLQp+oMx4PB7VVFufjR8ZGVXs+g1zeFl+v6+oNv6VtASXThVeyfXrNzQ2NmEOF9hUX0+LIQCgJHi9XtXWrDz0VpLGxiY0MmK9dS3H7/cV1ca/kmJy79Vr121nD9TX1ZlDAO4xCn6gDNm1EjY3Nym4Y7s5nJdMpvRzmzbAOzH0wYfmUIFdu3aosdF6VaKYgUMAAKw3u7zU3Nyk5uaVt66tZ+518th79+y0vFKPHBxfALj7KPiBMnFr5AtzqEA6nVEikTSHl+X3+xTccb85vGb27N5pDq3IbrUhm83a/u4AAKy1bDZr2+JeKrnX7/dp69Yt5vCKnOReu98dwN1BwQ+Uia3N95lDBTKZjO0U/MUaGzebQ2ummDbF0bEJy32FHo/H9ncHAGCteTwebW6w7kabnp6RYVjv7V+sVHLvrdujtrnX7ncHcHdQ8AOQFibcW7XxS9K582FzaF0lkynb9v7gju22bZIAANwLdleOCQTqbdv470Xu/fCjj83hAl/ZucM299r97gDuDgp+wMVufzFmO6l+1Gb43WKPtT1sDq0rv9+nhx/caw6vyG4CciqVKqqLAQCAYt28ddscKpBOZxyv6vv9vnuSe4vZWmd3HJFKpfTFKO39wL1CwQ+42Jb7Gi0n1afTGSUd7h3UOrcSrqSY72l3AOXz+dS8ZeWVFAAA7tQ2B3vh7fbAL1ZMHlwrxXxPu9/F5/PpvibnjwdgbVHwAy5jt6K/WGWlV9u3W+/Ze/dvf6ZkKmUO33XxeNxRe79Tc3NzRf2tAABYSTH5xEnuPfezu9vGv5Kbt0bWPPdmMivv/Qew9ij4AZcZnzBsDzxi12+YQyt66rdC8vvu/WV26urq9OQTj5nDy0qnM7a/Yzqd1uRU3BwGAKBoa51720NPmkP3xLatzY5zbyKRtN02NzubUNymIwDA2qLgB1ymcXODZRu/JNvr6C5WCsV+TjE/i93v6PP5FNhUbw4DAFA0J7m3mJxTTL5bb05/Fq/XK1mf81BNTXVRfwcAd46CH3CBVCpVVItcU6P1pXLOnQ9rbLx0B+zYtRhWVnptf8fFMplMUX8/AABSqZTtqv5igYB1oVsqW+hWcvPWiP7+wsrT+ysrvZZXHDAj9wJ3BwU/4AKziaSyWeuDjqvXrlteM3exp74dUuPm0h2ws21rs9q/4azdcXp6RjdujJjDBZLJlJKptDkMAMCKkqm0MpmsOVzg0uVrjnPv7/32bzleTb8Xtm1t1tcfd9beb0xO2ebe6ZlZci9wF1DwAy6wqb5OPl+lOVxgy31NltfMTZXwqoIVu5/b7/er0Wa1v6amWjXVVeYwAAArqqutscyrknT/9mbL+9jlsFJl93PX1tTY5t5N9XXkXuAuoOAHNqhUKqVUEWfG6+qs97T/3z+/qGjsN+ZwybsW+1wXf/mZOZxXWelVVZXfHF5RsdsjAADlo9gcYTdP5r999HFJb6FbybXY57p05ao5nFds7p2enilqewQA5yj4gQ0qm51TNmvdShi7fkPGpPW16XO+/sRjagnebw6XvL27d+mRh/aZw8saHZuwnSCcTmfEMQcAYDlOcsSvr123vTZ9zje/8WRJb6Fbyd7du7R39y5zeFk3bo7Y5t6Kigrb7REAVoeCH9igqqr8tmfPt29rtpyGm0qlFI9Pm8Mblt3v09TYoMbN1i2GNTXVlu2XAIDy5SRHBB/Ybrmyn0qlSno4X7Hsfp/t25rJvcA9RMEPbCCZTMbxqoEWWuqsXIt9rtEN2Eq4ks+uXLX9fXJ/EydDlCan4rQYAkCZy2Qymp1NmMMrssu9n125qrEx61y1kTj5fci9wL1DwQ9sIHNzUmWl9XC+kZFR28m4OXt371LLjgfM4Q3rkQf3Of59btwc0djYhDlcwO/z0WIIAGVubk7yeKwPmWPXb9jmlJxHHtynbVubzeENq5jf59KVa7ZbDSu9XlVUVJjDAFbJ+tMLQEmprPTK77e+ZE9zc5O2b1858cbjccu2d7cYGxu3bDEM7thuO0G4qspvu1IDAHA3J7nXLqeUS+69eeu2Ze596Ku7LbcaaqG9H8DaoeAHSlwmk9GUzUFCOp1RIpE0h5eVTKZs297dYHR8Qsnkygcdizn5242NT9BiCABlYq1z7+j4RFnk3ql43HHudbJFcdRmqwAAexT8QInzer3y+6xXFhKJpONWwsbGzY7b3jeyvbt3qb6u1hxe1o0bI7b7CjfV19NiCABloqKiQtVV1teINyanZBjW7ek5LTseIPeajIyM2ube+ro6cwhAkSj4gQ3ArpWwrq7Gto0/ev1zc7hsXL5y1bLFcNeuHbat+3a3AwDcw+Px2H7uNzU2qLm5yRzOI/feee61O/4BYI+CHyhB2WxWt7+wvmatJMcrC3MLrfzlyufzOf797YYJSXL03AAANpZsNmvbQp5OZxzn3mQyZduh52bFbIKzy71Oj4sALEXBD5Qgj8ejzQ0rD//RwkGHk/1vWmiJ27t7lzlcNlqCDzhuMTSMKdsWw6bGRnMIALDBOcm9crj3XAtb6JxOr3ejvbt3OT7hMTpqvS3R6XMDYCkKfqBE2bW5VVZ6bdv4L1+5ag6XPbsWw+CO7bZ/e4+HvfwA4EZ2n+/k3tX5+BcXzaECX9m1wxxawi43A1geBT9QQkZu27erObmPJPl8/qLa6cqFz+dzvOJw48aIOVQgnck4fj4AAKXp1sgX5tASdvkgx+fzq85hR1k5adzsbHU+nbbPq6lUSl+MWm+9APAlCn6ghDRvWXn4T47X4+wMt9/vK+s2/pW0BJ1PSfZ6rf/WlV6vo+cMAFC6tjbfZw4VSKcztvkgx+/3lXUb/0qKyb12qxU+n0/3NW02hwGsgIIfuMeKvbZ7U9PKZ8mTyZR+btM2hy+dOx82hwpYTV9eTrHPJQDg3ijm87qy0muZD8i9ztn9rez+1ssp5rkEyhEFP3CPjU8Ytsnq6rXrtoPktLCyENxxvzmMFTz84F5zaFmJRNK2nTOVSmlyKm4OAwBK0Bej47a599NfXSH3rrFi/lZOcm8ikST3AjYo+IF7rHFzgyoqrIcEbdpU73hYTWMjbW5OOW279Hq9CgTqzeECPp9PgU3W9wEAlIYt9zXa5t7t25rJvevA6d/KSe6tqvKTewEbFPzAPZDJZGxXFhZraly5jV8OWtNhLZlMaeiDD83hvMpKr2pra8zhFc3NzSmTsV8VAgDcPcXmXqtiM5lM6d2//Zk5jCIkkyl9+NHH5nAeuRdYGxT8wD0wPTNr2yYYu37D8bV+H2t72BxCEfx+n+P2/tGxCdsWw9nZhGYTSXMYAHAPxadnlMlkzeECl65cc5R7/X6fvv7418xhFMHv9+mhh5zl3pHbo7bT+6dnZpVMpc1hoOxR8AP3wKb6Ovl8leZwge3bmh2f2XbaHoeVOf0bNjU2aIvNZP6ammrVOXzuAAB3R8DB9rhdLTvIvXdRfV2dObSs5i1Ntpf2q6utUU11lTkMlD0KfuAuSaVSRbWa2R2UvPu3P1M8Pm0O4w6NjY9btvfLwXOzWLHPOwBg7RT7GWz3+X7uZ2yhWw83b42Qe4F1QsEP3CXZ7JxtG/+NmyMaG5swh5f11G+FVFdXaw7jDjVu3qwnn3jMHF5W7PoN2+crnc4om3W+ZxQAsHaSqbTstu3/+tp1GZNT5vCy2kNPmkNYA9u2NjvOvU6eLyfPO1AuKPiBu6Sqyq+qKr85XGD7tmY12gzoy/H7fOYQ1ojTv21wx3bb56umptp2+wYAYH3U1dbYrgx/ZecOx5PeneYHFM/p39bJ8+XkeQfKBQU/sI4ymYxmZxPmcIF0OmO78p9z7nxYY+Pj5jDWyc1bI/r7CytPEF7MyXM4ORUvakI0AKB4qVRKCZvBqcXk3nf/9mdKplLmMNbJzVsj+vgXF83hZTl5DqenZ8i9KGsU/MA6mpuTPB7rt9n09Ixu3LSe+p7z1LdDatzMkKC7ZdvWZn39cWcthtcdXFWh0uu1nRANALgzFRUeVVRUmMMFxsYmbLdk5fzeb/+W49Vn3LltW5v12KOPmMPLunrtum3RX1FRQe5FWbOuRADckcpKr/x+64OEQKBewR3bzeG8FKsKJcHuedi1a4f+y3/5L+rp6ZUkxWKx/H9LUk9Pr7744na+xbC/f0DPv/CiXjpyVD09vTIMQydOnJQkhcPhgv8eHBzMP44kfffpZ2QYRkFs8fcCgHLmJPc2NzepuXnlK67Yfebj7rB7Hvbu2Wnbul9TU217H8DNKPiBNZbJZDTlYHq+3WpwzmdXrioa+405jLvsWuxzXfzlZ+ZwgaFwWIZh2D630WhMH/xf/00/eu1/06unTykUCim88LWSdPbsYP6/3+ofUCgUyn/t2bOD6ujoUH//QD4GAOUuk8nYfvam0xnbVv+c//bRx2yhKwHXYp/r0pWr5vCy7Ab5SdLo2Djt/Sg7FPzAGquoqFB1lfV1YBOJpAzDPjFJ0iMP7lNL8H5zGHfZ3t279MhD+8zhvGg0pvZQSB0dHfrJX5+1bDG8fj2mf/AP/h/5ltOWlqCGhyNqbW1VLBaTpPx/NwQCCgQC+a8Nh8N66XD3khV+AChnFRUVqqy0HpCayWQct/F/8xtPsoWuBOzdvUt7d+8yh5c1Omr/3NZUV9tu9wDchoIfWGMej8e2dayqyq/t25vN4bxUKqW4gy4B3BvLPT89vb2KRCIKh8P66U9/YvkaaG1t1aXPvuwWGBoKKxgMav/+Dr3a06vW1lZ1dXXm/zsnGo0purBVYDgS0dAQ14MGAC3kXrs2fnLvxpZKpSyHJ35l1w5zaImammpzCHA9Cn5gDWSzWY2O2bf+jTpcWbgW+1yjtBKWpGg0pj/74Wld/OUvC+ItwaCOHz+mw4e71dbaqokJQ2cHB3XqdE9+P/6JEyd15MhRDQ2F1draqhMnTqqnp1ex65+rq6tTwWBQsVhM7e0hBQKB/H/nDAwM6JWF7/Hq6VMKh8PzX7/QFbB4DgAAuF02m9XYuH1eHbk9ag4t67MrVzUVj5vDKBGfXbmqMQfHWnLwnGezWd0a+cIcBlypYufOnRtmI8uhQ4d06NAhcxgoCclkynJ1IZ2ebyW0GhKE0tfT06vDh7vz/2/nxo0RyxUlScpm5+Tx0GIIAMWy+/wk95Yfp8+53XEbcC+9/PLLevvtt83hVWGFH1gjdkmjstJrmXzi8TithBvAcCSiEydO5vfVj42NW7YY2hX7kiwPVgEAK7P7/CT3utPNW7dXzL12z3mO3XEb4BYU/MAdsGsZk6TY9RuWA9xykskUbfwlzDAM9fT06pXjx3T8+DEdPHhAkjQ6PqFkcvmDjsUSiaRi12+YwwWy2ayj1xQAlDMnW+h+fe26ObSsqfg0uXcDmorHHedeu7yaSqX0xSivAbgXBT9wB5q32J9Brq2tsRzgltPYuFktOx4wh1ECotGYTpw4md9nv9je3btUX1dbEFuO1+tVYFO9OVzA4/E4ek0BQDlrarSfnt+0ucEcWta2rc3k3g2omNxb5febwwV8Pp/ua7J/TQEbFQU/UKRir9/a1LjyQUc8Hlf0+ufmMEpINBpTT2+vjh8/tqTYN7t85apli2EgYF3wmxX7WgMAtyr289Dq85bc6y7kXsAaBT9QpC9Gx22TQez6DU1Pz5jDS8wttPKjNA0PRzQ4OKhXT5/K79m34vT5NCandOPGiDlcIJVKyTCmzGEAKEtOcu+ly9ccb6Hz+9i/7RbWr4ovOcm9iURSk1NcqQHuQsEPFGnLfY2qqLAeErR9W7Nqa2vM4SXq6+q0d/cucxglIBwOKxwO5/fqO+G0xTCwqV5bbFr3fT6fGho2mcMAUJac5N5dO3c43kK3bav9QFVsDHt373J0Aqe2psY291ZV+W233wEbjbehoeEVc7BUhUIhhUJfXpMauFvm5uZsDzQW83hWPpcWj8f1y08vcbBRws6c6dOtkRE977DYNwxD//bf/ql6env1d+fOKZFIKJnO6D/9p/+k//yf/0KRSETt7V9+dh05clSffPKJBgcH9Z3vPKX+/gH19fUpHA7r0qVLeuKJxyVJzz77nILBoILBHTp9+lV98MH/pfb2kMLhsKLRmFpaghoaCmtgYEDt7SH19w8oFovp786d07lz5/InLdrbQzpy5Kj27+/If3/DMNTT26tz584pFovlv2csFtP3n31OFy5cUDgc1ne+85ReOnI0f5/c7xoOh/XOO+8oGAzq9ddf15m+Pp07d06StG/f3vzvCgCrlclkLPOpmdV94/G4Ytd/o0YH+/+xcX144WM9cP82c1haeH1YvUbM5ubmlM1mi/oaYK28++67unjxojm8KryCAQcmp+JKpdLmcIHY9RsyJu1bsH0+vzZb7OvHvfXjM30KBoOOi31JCgQCOn36lPZ3dOiV48cUCoX00Ycf6k/+Xy/r1dOnJElDQ2FpoaAOBAI6fLhbBw4c0Ke/uqREMqXTp0/p+MLXGoahaDSmjo4OhcNhJZMpZbJZxWIxxWKxgu/d3h7S3EJHQu62hoXHP3y4WxOGseRrcg4eOKDTp0/JMAwZhpGP7+/oyP88ktQSDOZv7+np1eHD3Tp+/JhOnz6Vf+xXFv6dO6kAAHdqcipu26L/62vXHefeOgcdWNjYtjZvMYeW5eSYbXpmVkmbYz9gI6DgBxwIbKqXz1dpDhcI7tjuqA3M7/cxEbhEnTnTp/ZQ6I6L1kgkopbgl89xrnCXpGAwqNbWVp04cVJ9fX2qranSyK2b+fu2tbUqEAiop7c3/3MkErPy+3w6cOCAenp68/fNef7gAT3/wovq6upc0k3QHgopEokU3D9nYGBAJ06czJ+EyDk7OKgjR47q7NlB9fcPKBQKKRAIaGgoLMMwCoYX5n7GM2f61NPTW3DiAADuxOaGgG2L/ld27nCce+msc7/FudeKk2O2utoa1VRXmcPAhkPBD6wglUopk7FeWXAqmUzpw48+NodRIgzD0IkTJ7V/f4fa2lrNNxetra01v6IvSZd+HctvRxoaCqu1tVXHjx9Ta2urhocjGl4oyNPpjM6eHVQsFpNhGOrvH1A0FlN//4AkqaEhoM7OTv3H//S/5x9bCx0G+zs6FAwGFQrNt/bnnB0cVGvr/EmEnImForyzs1PHjx9bMvAot8K/f3+Hhha2BRiGoXA4rGAwWNAxcOZMnyTp4MEDOny429FwQwBYiZPca7fqn5NMpvTzX6xNSyw2lmKeeyevJyevS6BUsYcfWMFsIiktXNJlJSMjoxobn7C95IvX61VNdZVqaqrNN+Eei0Zj+uEPf6h/8S/+yPaye3YikYj27durYDCojy5c0ODgoM6dO6ev7turf/Rb35YWiva+vj698847isZi+oPv/b6am5v1+uuv67PLv9b09LRmZ2b0aFur/vAP/5n27+/Q3507p4ZAQPv27dW+ffv03vvv65GHH1ZLy5c/b25lv6UlqKFwWIODg/qrd95Ra2urvvOdp/TZpUt655139Oevv67D3d1KJBKqqqpSS0uwoCvAWNgCkNuvn0gkdPDggfzsgM7OTg0MDGhgYEDhcFhdXZ2KxWI6d+6cLly4IMMw2MMPYNVmE0l5vV7LfdNffDGu6ekZ1dVZD8f1er3y+3zk3jJUzHN/5dcxVVf55bMY/OfkdQmspbXcw1+xc+dO8+JOyTp06JAOHTpkDgPAqkSjMfX19bEyDQAAgJLx8ssv6+233zaHV4XTVMAimUxGiYWV/ZWk0/b3yXn3b39mDqFEDA9HNDg4qOPHj921Yj+ZTOnc+S9b/a1MT8+YQ0tMT8/QYghgw0ulUraDccm9WK1itlU6zb1zcxtmvRSg4AcWy2Sytpffy2QyGrk9ag4v6+uPf80cQgno759vRz9YxCT+teD3+/RY28Pm8LJGxyZs9xVWVFSIYw4AG93c3Pwl0KxMT8/IMKynqueQe7GY3+/T1772iDm8rFu3Rx3l3kwmaw4DJYuCH1jE7/fJ7195D5ckVVX5Fdyx3RxeFtf7LT1nzvRpwjDuerGf4/Q1Edyx3XJ+hCTV1FTb3gcASp2T3BsI1Ku5uckcXpbTz1mUD7/F/vzFvrJzh21eJfdio6HgR9nLZDKOWrhGxybMoWX9l5/+reLxaXMYJeDHZ/rU2tqq5+9Rsb/Y2Pi44/Z+u2sFa+F61XYrZABQKpzk3nQ643hV/9zPnH2eorzdvDXiOPc6Oe6bMCbJvSh5FPwoexUVFaqsrDSHC6TTGSUd7h38vd/5LdXV1ZrDuMfOnOlTeyhUcI36e6lx82a1f+NJc3hZTg54/T6f7XYUACgVc3Oyzb1yuKdaktpDzj5PUd62bW12nHudvPbIvdgIKPhR9jwej20rYWWlV9u3N5vDy3LaNoa7wzAMHTlyVPv3d6itrdV88z3l9LXiZAtJVZXfHAKAklVZ6SX34p5w+lpxknudXPYPuNe4LB/KUjab1eRUXA2BTeabCsSu33D0gX/ufFiPPfqwGjeX977B3DXch4cjisVi5psLtLW1KhAIKBRavxX3aDSm3t5eHT7crWDwy2vWl5qbt0YUvf4bff3xx8w3FUinM7pxc8T2NTk6Nq4m9rACKDGZTEZT8ek1y73v/u3P9NRvhRwXcG5lGIYikYiGhyMyDMN8c4G2tlYFg0G1tpbWCfB74eatEY2OTeiRh/aZbyqQSCRlTE6peYv1DAlyL9bSWl6Wj4IfZSuZTNmuLoyOTaipscEcxiLhcDh/kDEnqa21NX9AYSV3UiASiUiSAoGA9u/vsP06p6LRmAYGBnTw4IG7dtm99ZZOZ2RMTtm+JtPpDAOFAJQkJ59PhjGlQKDeHMYii3NvIBBQa2urWlqCtjnUnHuDwaDa20O2X1fOnOZeJ8eVgFMU/EAJSKVS8pXpqoJhGOrvH5BhGAoGg9q/v+OOi+poNKZwOKxYLKZgMKiurk7zXRwbHo5ocHBQhw93m28qeeX8ugIAO+X8Gbk494ZCoXyn3J3I5d5IJKLW1tY7yr0bWTm/rlCaKPiBVbo18oW2Nt9nDhe4eu26djxgf0m0i59+pvraOrUE7zff5FqGYejMmT4ZhqHOzk5He+INw8i3GAYCAUcHJ7nV+dUU/rmDoXt12b07denKVUnS3t27zDcVyF2T2mp/azab1fiEQYshgHvG6efQpcvXtMvBJdHe/+BDPfLQ3rLaQpcr9CWpq6vTUR5dnHudrt4PDYUVDodXlXs3uktXrsrv89se0xmTU5qOz5B7se4o+IF1FI/PqK6uxhwue+FwWG/1D+ilFfbD5/YQnj07OL+PP7LyPv621i/3ELa3h1bcxx+NxtTX16eurk5H+w3PnOlTIBAoiwOVdDqjTCbDsD4ArjA9PaPaWnKv2dmzgwqHwzp48EBRuXfxCfZcLs7l3lx3gFXuPXL0qF49fWrZ71nO0umMtDBQ0ko2OyePh+n9WD0KfuAeSaVSSiZTZXXZvdzKQq44NwuHw+rvH9DZwcH8akKxAoGA9nd0qKurc9kDkMUrGyv58Zk+ta3wM25Ua/16m5ub4/JBADactf4s3AgMw9CJEyfV2dm5bF4Lh8Pq6elVdGEb3P6O+Rk4VjN0cvv3w+GwhsJhGYah9lBoxdz74zN9qpA2bMfcasXj0/L5fWU/DBL3FgU/UITbX4zpvqbNloVO7PoNBQL1CmyyHhJ06cpV+f0+tex4wHyTKw0PRzQwMKDDh7uXtBD29w+op7d32VX8xQcf5q+LxWIyDEPDkYjC4XDBbVr42sPd3UuK+2g0phMnT+qV48eWHMz09PSqo6P0Lrt3py5++pmaNjdo29aVWwe1MFwyk8lYThBOpVIyJuO6r4kWQwDrb+T2qOVnkiT9+tp1bd3SZLuy7/Sz0C1yc2jMQ2dz2+rO9PXN77fv7LyjGTq5/fs9vb1qCQbV2dlZVO51K6evtxs3R+T1ei1f5+RerBYFP7DGnEwNLje59kDzmf1wOKyXjhwtKPQDgYC6OjvzRfd3n35Gb735hqODg6GhsPoHBvID+3KCweCyj3HmTF++HTG3AlLql927G3gNA9ho+Nxaqr9/QNFYTC+Zhs7mcm/upPhyq/53IncSvyUY1GlTK3/uRENXV2fZ51ozXsNYLxT8gI21bF2Ox+OSKsqqlbC/f0AThqHnFxX7hmGop6dXZ/r68rFQKKSDBw5o//6OfEwLJwvO9PXprTffKIjbWa5r4HB395Jp+z8+06eWYFCDg4M6fvzYqlc3NpKxsXHV1dfZthg6OfiYm5tTNpuV12t9PwAoRiaTWbPPlXLMvT09vQqaBuYZhqGXjhxVJBLR6VOn1rzQN8vl4a7OzmVzb/vCCfdycfPWbTU2NpB7cdetZcHvMQcAN5gwJpVKpc3hAiMjo7pxY8QcXiKZTOnGLfv7ucVyxX40GtN3n34mX+wHAgGdPnVKb735xpJiX1I+dvbsoPkmS11dnXr/vfM6ferL1YWe3l599+lnCk4CfL+rU2f6+tTZ6WxasRuMjk8omUyZw0vEPr+hsbEJc7hAMpnS9MysOQwAd2RyKq65Oet1pNh1+88oSZqKT2t0fNwcdq0zZ/qWFPvDwxF99+lnFAwG9dO//sm6F/tayMNvvvGGhsJhff/Z5wpy7/MHD2jI1I3ndlPxuKPce+nKNRmTU+ZwgemZWc3MJsxhYN1R8MOVNjcE5PNVmsMFmpubLC+rktPYuNn2EmluMTwcUTQWKyj2h4cjevqZLwvuzs75oty8z8/s9KlTOnHy5KoG+eUOODo65k8cRCKRggOPQCCgt96cPyAplwOPvbt3qd7BStdXdu5QY2ODOVygqsqvTfV15jAA3JHNDQHb7rrgju22n1GStG1rc9nMyzl7dlBzpsG04XBYL7z4og53d+uVu9zJ1tIyv6UuFAotW/T39w+Qe00e+upu2zlQdbU1jh4LWGsU/HCNVCqlTGb+cikrSaczSiSS5vAS8Xhc0eufm8Oulhves3jf4PBwRM8+91y+aD927JhePX3K0YFHS0tQBw4cUE9Pr/kmR1pagvrxj15Td/f8zxOLxZYceLx0uFuv9vSu6qTCRnb5ylUlU/YrDk5e65nM/OX9AGA1UqmU7ao+uXdl0WhMMdOJ9v7+AT3/wov60Wuv2Z5cX08vHe5WZ2fnktx7mNxraXp6xhxawskxK7BWKPjhGslUOn991JUkEklHrYQ+n99RC5eb9Pb2Fgzoi0Zj+WI/EAjoR6+9VnBA4sTzBw9oOBLR0NDSafxOvXS4W8eOHZNWKPpfOX5MZ858OVegHMwttOXbuXFjxPY9kU5nlLTZ/gIAK0mm0spksuZwAWNySoZh3e6shc82u73SbnPi5MmC3Ds8HFFPb6/efOONktgrv2LR391dlrnXyevzNw5ybzKVJvfirvE2NDS8Yg6WqlAotOx1QgEtfAjbDUzx+32qd9DK7PV61dRYPpdQ6emZL/ZzK/e5Yn9kZH52wf/5F3+x6r2DoVBIR44e1R/+4T8z3+RYc3OzwuGwRkZGZBiGhsJhfe97v6+qqipVVVVJC23/+/btNX+pKzU1bpbfb3/QsXlzQB6P9XndykqvfJXW218AYCV+n8/2c6amplp1ddaX3pMkv9+v+jr7HO0WPz7Tp+dNufd//Of/XKdPndITTzxuvvs9094e0oRh6Ezf/KR+SWpoCMgwDI2MjKilpTwm9zs9LmxqbLB9T/h9PnIvLL377ru6ePGiObwq1q9GoMRlMhnb4XySHK0sxONx/fwXa/PG2kii0ZgCgUDBpXZOnDyZP5N/7NixO1plaGkJan9Hx6pb+yVpYGBABw8cyLf3RyKRgsdrbw8pHA6XXXuhJH3yy88ctRjaDRPSQgcMLYYA7KRSKdvcm05nHOfey1eumsOuF43O59jFuffZ555TZ2fnqk+wr6eXDncrEAjoxImT+dj+/R3qHxgoy9z74YWPzaFlOcm909MztttigDtBwY8NLZPJKpu1biVMpzOO9lP5fH5tdjBIyG0GBgYK2gn7+wc0ODg/Xb+7u7voNv7lHDx4QGcHB1c15CcajWkoHFZXV2e+tVCSzvT1FWwVOHy4W/39A4u+sjzU1dU6ajE0jCnbFsNsNiuOOQDYyWbnHBUoTnNvOV16L2dgYKAgv/b09Kq1tbVgjk6pefX0KZ0dHCzMvWXY2i9JW5u3mEPLGh2130ZaUVFhuy0GuBMU/NjQ/H6fqqr85nCBykqvo2n8fr+vbCYC50SjsYLVhWg0pp7e+ZXzYDC4ZgcegUBAx48d00tHjppvsjUwMKCuhSJfC3v2cz/zkaNH8ysLuZbIcltpaAk6e80Gd2y33fJSU1Ntex8AqKry224rKib3bttqfz83CYfDS3Lvmb4+vXJ8fl7NeolEIurvH1B//4DC4eJn6+Ry+YmTX67yt7QENUfuXdFXdu0wh5Yg92K9UfBjw8lknK3Yj9weNYeWSCZTOne++KTnFgMDAwUTgHt6e/Or8G+9+caie9659vaQWltbi1qFj0Zj6jf9jIFAQKdPnZIWhvgtXlno6uos6vHdxulr+caN+dkMVpxcTxtA+XCae518viSTKX34kbOWaDcaGprvWsvp6e3VgQMHCk4CrKWzZwf1zW99W999+hkdOXpUR44e1feffU7f/Na3i86Z+/d3KBAIFHxdV2dnWa7yq4jXcjqdcXRcSu7FeqDgx4YzNydVOhh04vXYny31+316rO1hc7gs5PYPLv73wMB8Au/q7FyXA4+XDnerp9f5pXx6ent1eGHf/mLt7V8O8DzT11ewyu/0sd3I6WvZ63Xw3vD5aO8HkOck96bTGWefL36f9uzeaQ6XheU668yXxF1LPT29euHFF5fdUheLxXTk6NGiZ+wc7p7P5TktLcGyzb1FvZYd5NRKr1cVFRXmMHBHKPix4VRWem1bCSWpqcnZfvxGh1NX3Sa8sC8+p6/vy7Pzh9fpwCPXDujk4CJ3ELTSNYhzJwIMwyhYaQiFQnd0GcCNzOlrubm5yRxaoqrKL4+Hgw4A85zk3spKr6PPFxXxeeU2AwMDBUP5enp7dfDAnc/KWU5//0BBYb6Snt5enT07P7vHifb2kILBYH7ejyR1dHSQey04fW/U1FSbQ8Ado+DHhpDNZjVhTJrDS1y9dt12MJkkvfu3PzOHyk4sVrjKcHYhcXd0dEjruB9v//4ODUcitgcGPb29On5s5f2Mi1f5cz97Lr6avYlukkymNPTBh+bwEolE0lH77dj4BC2GQBnKZDKOpox/+qsr5N4iLM69g4OD2r9/Pu+uNSfFfs7ifflOHO7u1o8XtfGTe+evOOGkvd9p7h0dGzeHgFWh4MeG4PF4VFNtf9Zz06Z6R4NPvv7418yhsmIYRn7InRZW+3PtfpFIRN9/9jl99+ln9M1vfdv2f49+7THt3PWVov4XDocLBu6ZRaMxxWIx24Og/QsnJxb//JhvMXz4wb3m8BJer1eBQL05vMSm+npaDIEy5PV6VVtTYw4vsX1bM7nXAXM7f3//gFpbW9dlC93wcKSovBiLxTQ8HDGHV9TW1qpIJLJiHi9HdXV1+trXHjGHl3Cae+vr6swhYFUo+LFh2LUSSlKTw8vqOWm/crOhoXB+dVwLA3200HL//nvni/rfL37+sa5d/XX+f4tPJFgxD9xbbKW9+2aL2/0XtyO2trbadhC4nZPXeGWlV7W19gfzTg7kAbiTk/e/k+JFDj+X3CwcDhe08w+FwwVXoVlLxRT7OZGI84I/EAhof0dHQe4NBoOr+r5u4uQyuU5zr5PjXsAJCn6UrGw2q1sjX5jDS8Su33A0Ofi//PRvFY9Pm8NlKRKJqK2tNf/voYU2vMUnAVajv3+gqLP9Pb29S1YUotGYKhbaA+0EAoH8z5z7HbTwtcUcuLjZ2Pi4o+n9o2MTjloMnbwnAWxc2WzWUSvxpSvXHOdezDNvpTOfAFhLxeTinIYGZyfsc0Khwjb+9vbynaFjdvPWiKOtdSO3R22n9zt9TwIroeBHyfJ4PNpyn/2Ak+3bmh2dKf293/kt1dXVmsNlzzCMfHHcfgcFfzQaK2q/YI5532BPb29RQwPbWudPXCw+6Cj3af2LNW7erPZvPGkOL9HU2KAtW+zfb07ekwA2Lo/Ho80N9t1yu1p2OM69mLc4L0WjMRmGsS7t/HJ40txsx47ifpb29lDByXZW+L+0bWuznnziMXN4ieYtTWrcbP1+c/qeBFZCwY+S5mRKuJN2QzlssypHi1fCWxeK59Xo6e1dVaIPh8P51v7BwUFVmAYa2cn9zIZhrOr7lwOnr30n7yUn70kAG5uT97mTzwsV8flTDhZvebt+PXZHOddOMBgsqmsvGAwWdP45EQzOX46PE+zLc/rad/JecvKeBFZCwY+Sc/uLMduJ4DdujmhsbMIcXuLc+bDGxmmDsjIx8WWibmlxXmgvFo3GNDDw5aXxitXT26tIJKJXTpwsanVfppMUi38XLHXz1oj+/oL9BOHY9Ru2769UKmXbhghg47h567Y5tMSvr113NLX/3b/9mabYQlfAPCx3eDiS71BbL05m4eQUc9/F6KizF419rou//MwcXsLJ+yuVSumLUY5rURwKfpScLfc12k4E376tWY0OBvQ99e2QGjeX95AgM/NBx+JV8WJW1hdbTSv/YoZh6LtPP6P20Py1fYuxeM8h+/atbdvarK8/bt9iGNyx3fb95fP51OxgCwCAjWHb1i3m0BJf2blDgU32A/p+77d/S/VsoStgzr3mf6+H9vaQuh0U8t3d3QVDcIvREgwqGqW7zkpL8AE98tA+c3gJJ+8vn8+n+5o4rkVxKPhREuxW9CUpnc44us5vKpUyh7CI+SAjd2Z+tQce/f0Dd7S6v1ixq/u6g5MU5S6VSjl6rzh5z8nhexhAaXHyviX3rg3zwD45zLu5bW+Dg19Owy/GS4e79aPXXlvyvbXQIffmG2/opVXk3pxNDn4HfMnp+8TJe25ubs7Rexig4EdJGJ8wbD/cpqdndOOm/RTxz65cVTT2G3MYNpwceCznTlf3c7o6O5c9IMH6uBb7XNdin5vDS1y9dt12EncqldLkVNwcBlDixicM24JhbGzCdouPFnLvzVv2ORrzYrGYZd6NRmN69tnn9P1nn9OJkyf1/Asv6pvf+vaSK9s4sX9/h95/77z++ic/0Y9ee02nT53S+++d10//+ierGu5nNjlJS79T12KfOzpGvXrtuu1x8exsgtwLRyj4URIaNzfYDi0JBOoV3LHdHF7ikQf3qSV4vzkMG6sZeHfmTJ9Cq2jDX85qVve1yksPQdq7e5f27t5lDi+xd89O20ncPp/Ptg0RQOlp3Nxgu4WuublJzc3223ceeXCftm1tNoexwDzB3vzvxc6c6dPTzzxTMAFfC3n66WeeUU/P6k60t7W1av/+DnV1rd0J9knD0KZNX564sDqJgfnc6+QYde+enbbHxTU11eReOELBj5KTSqfNoSUSiaQSiaQ5vEScoUFLmAfsrDbpR6MxnR0c1EuHu3X61CnzzUW5k9X9tfhdykUqlXL0nnD6/nLyXgWwMTh5P09Pzzj6bBgbt+8IwFKGYej5F17UiZMnLU9m9/T26vkXXlzxhMG9ZPVzlyunudfJ+2tubs7RexVYjIIfJSc+NW3bYjg6NqF43LrNWJIuXbnKpGATc8G/0gA/Oz29vflCvb09VNTlf8xWu7ov08/MyoK10bFx3XDQcuvk/ZXNZjUzPWsOA9igJiYmzaElJowp24JEC1PJkw73KpcLc+41r/CHw2F99+lnHO/VHxwc1PeffW5VLf5rIRwO69lnn9NQOLzqK/yUi2uxzzXq4IpRE8aUMhnrNv5sNqvErP17EFiMgh8lZ/PmgG2L4f3bm9XUZD1FXJIee/QRJgXbWHzdXadT7qPRmMLhcMFU39OnTq2q4O7u7r6jlfnFBzscdFjbtrXZURu/k/eXx+NRIEArIeAWW+5rNIeWuH97s6P3/WOPPuL4GuTlIhAIFBT4ra2tikQiMgxDJ06c1Peffa6ok+5agxb/1YhGY3r+hRf1/YViX3TX2dq7e5dadjxgDi9x//Zm2y10Xq9X9fUc16I4FPwoabOzCXNoiZHbo7aDTeTwGsPlKBgM5gt1pysFL774ot56842CWEtL0NHlfxYLBoP6/iovBZQzvHCSoq21dVUnHNwulUo5eu0nEkmNOhjM5eQ9CWBjc/I+J/cWb3GOamkJKhqL6btPP6MzfX0F9yvW3WjxNwxDPT29evqZwi6EO+nuc7N4PO7otZ9IJG0H48rhexJYCQU/SpqTfUper9e2BUqSbt4aocVwgbm1sLV1fpXfPCBoOf39A2ptbV32jP7zBw8Ulfw772Dvfk544WfO/Q5aOHGxuHOhnM3NSWMOWgkzmYwqvdYDguTwPQlg48pms8pks+bwEuTeOxMIBJa09d+J9Wzx7+np1Te/9W319PYu2aPftij3hsPhoo4B3CyZTGkqbj9B38l7yOl7ElhJxc6dO603S5eQQ4cO6dChQ+YwgCINDc0XybnL8Zw506cTJ09Kkn7x848tV8q//+xzevX0qRUL9eHhiJ5+5hlzeFm5VfmVHsuOYRg6u7DScPrUqfwWg/7+AbW3r83VAwAAWAtnzw4qEAjkc++JEyfveHV/OYe7u+9oNk5OOBzWS0eOWp6UePONNwqOJbq6Oi2PIQA48/LLL+vtt982h1eFgh8bQiaT0cxswnY//o0bI9qypcn2UiaXr1zVHgd7md2sp6c3f0AQi8X0zW99W5J0/NgxHTx4wHTveT09vZqT9JLNgcQrJ06qQtLBgwfWteh+6chRDQwMSJLef+98/nudOHFSx48fM927vDh5jScSSRmTU2reYn3JrenpGdXUVNvO1gDgLplMRolE0nZf8aXL17Rr5w7b3PvJp5/p4Qf3mcNlwzAMnTnTl8+9Q0NhPfvcc+a7rYmOjg69cvzYqnJwOBxWT0+vbddfIBDQL37+cf7fi48rylE8Htfo+ITtfn2nudeYnOKye2VsLQt+WvqxIVRUVDgqNvxVftsDDi20WuFLwWAw34aXWzE3i0Zj6h8YsC32tXBCwO5AYS3k2vnv5LJ+bpRMpuTkTK7X61WV328OL+H0/QfAXSoqKhx9ljQ2NjjKvb4yH+RnXvlubw8tia2V1bT4LzeQz8r+jo78f0ejsXX7XTYKn8/v6PjS6/WqzuYkmiT5KivNIWBVKPixIXg8Hkcfjk2N1pPFcx5+qHxXGHJCoVC+tV8LRbMWiujF8Zye3l4ddjiULxAI6PixY3rlxPw2gfXQ3z+QbzPsXPjZc/HF/y5Hfr/P0TT+ykqvo4nbNTXV5hCAMrDWudfJ55LbBQKBgiviHDywfEfdWnA6xX+lgXx2Diz62cPhsPbv//IEQDkqJvfadc2I3Is1RMGPDSeZSmkqPm0OL/Hpr66YQ8v6+S8umkNlob09VJDY9+/vyJ+d7+ktPDiIRCKKxWIFl+Gz094ekmEYy548WAu5nzEYDOb3D2rhZy3XgX0fXviytXIl6XRGl69cM4eXMCanHE3gBlAeEomkbe5NpzP69DP73JtMpso293Z1dRbkxYMHD6z7yrjVFP8zZ/pWHMhnJRQKFeTacDhclp12Tl/L6XRGV69dN4eXmDAmNTfnpK8GcM7b0NDwijlYqkKhENM/oYqKCnm9Xnk81ueramqqHbcP1tfVmUNl4dKlS9q3b6+qqqpUVVUlf1WVzp07p1hsvjXviScelyT9wT/57/XjH71W9EFJKBTSkaNH9b3v/b6qqqrMN69aT09v/mTF8WPH8gcd0WhMiUSibAt+r9dj+1r2eDyqqvLbvjcqKirk89FOCOBLfr/fcnuPx+NRTbV97vUuXBHE7vPKjaqqqnThwoWC3JtIJPJb1NbLpUuX8lv2Ll26pHA4rD/+wQ/0zjvvKJEo/pJvP3rtNW3d2iwtFPstLUHt3bvXfDfXc/pa9ng88vt8tu8NT4XH0fYYuN+7776rixftTyY5YV0xASXI43H2YeikXUqSti0krHLU1dWp/v75oXdauKxe7vJ2Pb29isVi8xPvQ6ubeN/SElRnZ6fOnFm7KcTRaCy/ut/V2VnQdTAwMFBUF4LbOH0tO3lv+P3WByUAyktlpVcez8rFfo6TzxcV8XnlRubcu94DbnNisZhOnDypI0eP6sTJk8uu+DvR1dlZcGL9rf4BdSzaz19unL6Wnbw3yL1YDxT82NCmp2c0PT1jDhdIJJK6+Mln5vASyWRKn3xqfz83CQQCMgyjIOkfPzY/3d4wDD3/wovze/cdDOpbyfMHD2goHF71gcVihmHkJxoHAoGCnysajd2VA6ZSc+582NE1rn8+/EtzaAljckqJRNIcBoACU1Nx29wbj8842loXj8f1sYOWaDfJdcvlWugDgYBOnzpluldpCgaDBbm3v3+gYHhfuTh33llHhtPcm0qlzWFgzVDwY0Orra1RdbX1UJOqKr8eedh+SJ/f79O25i3msOsdPtxdMNCnvT2kYwtFfyQSUTAYvONC+nB3t146ctQcLtri6wF3d3cX/FwnTp4sy9X9x9oelt+mRVCSvtb2kDm0RH1dnaqq7Kf2AyhvtbW1trm3rq5GD351tzm8RF1dnfbs3mkOu15XV2H3W3t7qGAIXqk6bMq9sVisLIf1Pdb2sDm0LKe5ly10WE/s4ceGZ7WfcDnpdGbF/f/lOhE1EAhocHAwv2f/iSce13AkokuXLuUL7MWD8YrV0hLMP17uexTrpSNH9c4770gLk4EXXx6wp6dX//Jf/FHRMwbcwOo1a/VaX06x7yUA5WmtL9Xpd3B5ULfJzbWJxWJqaZkvoL/znafWrCNuPXR3d+v5g1+elOjvHygY+FtOyL1Yb+zhB5YxPmHYtiMbxpRu3Bwxh5cYG5soqxbD9vaQJkyt/a+ePlWwn9/usj52Xjrcrf6BgaKmAGuh5fGlI0c1MDC/37Gjo0OvHJ/vQNBCK/+mQOCOuxA2kqEPPtTY+Lg5vMTVa9dt3xPT0zOK27TmAsBKvhgds/2cGR2bUOz6DXN4iWjs87LaWtfeHlpS4P/4R6+VZD7r7OwsONF+9uz8AMBS/FnXy9AHHzraQnfpyjXbq9ywhQ53Eyv8cI3q6irbYX5VVX7H1x1vbNycn75aDtrbQ3rlxEm1t4fyk4O/973f19+dO6eRkRGFw2ENRyJ64onHV3U2v6qqSs3Nzerr63Pc/heNxvQ//vN/rnPnzkkLnwH//t/9r/mVkWg0psHBwYIVh3KwbVuz7URgLVwb2+494fP5HG0JAIDl1NbU2H7O1NRUO8q9DYFNCgQ2lVXubWtr1f/0Zz8syL0dHR0aHBws+gT5euns7NSrp7+cMRCNxnTp0qWy20a3bVuzo3y55b5G2xX+qiq/7fsG5Y0VfsCGk2uYptMZy7OrTj7U3eaV48d04sTJ/L8DgYDeevON/Im2wcFBff/Z5wqmCxdj//4ORWOxgmsQr+TMmT49/cwzikQi0sIBx1tvvlEw7Khc9+1bvTbtXtc5Tt4jAFAMJ58rdp9RVp9vbhQIBHS4u7tgP39LS1BvvvFGvsvuXjpw4MCSYr+nt5fca5JIJG1X9eXwPQKsNVb44UrjE4Z8lT7LM6xffDGudDpjuQ9LCy2Gv7lxU1vuazLf5DpVVVVqbW1VX19ffs9+VVWVuro6NbdwrV3DMDQ4OKhYLKa2ttaiV/tDoZCOHD2q733v9/Mr9YuFw2EdOXJUf/766/lrAx87dkz/5l//Sf4+uTb/V44fU3Ozs8vhbHRDH3yo+vpa1dgMyrp56wt5PB7L4XuJRFLTM7OW9wGAYo1PGKquqrLck3zz1hfKZudsc+/lK1c1Nj6hxsbN5ptcp6FhflvawMCAqqqqlEwm1NIS1B/+4T/ThGHowoUL5i9Zd4FAQH/yJ39S0MZvGIb+7Z/+qf6n/8//e9n87UbnzofVEKi3zb0jt0flq/TKZ3FSID49o9lEgtwLR9ZyhZ+CH65UU11tWexrYYKw3QGHyrDFMHfg0dvbqyeeeDyf1NvbQwoGg4pEIjIMQ5FIRGf6+hSLxfJf40RDQ0AjIyM6d+6cvvOdp/LxXKHf09ub388YDAb1o9de0x987/fz9zMMQydOnNS/+dd/4vh7uoHTNv5N9faT9isrvbb3AYBi1VRXWxb7WviMcpJ7Gxs3l0Wxn9PQENC5c+f056+/roOLtql95ztPFeTeu6G1tVU/eu01fXfR9rtoNKZ/+6d/qldPnyr6RP9G9sD92xznXqtiXwsdAuReOEXBDxQhlU7La1P8T0/PKJudW3E/VbkU+zkNDQHt3btX//ZP/7Rgz35bW6u6ujrlr6pSODzflh+JRNQ/MKD+gQHFYjFVV1cpEAhYnv1vbw/pz374Q1VVVWlgYEB//IMf6M9ffz1f6AcCAf3RH/2RXj19Svv27c1/XTQa05/98IdltbKfY/UaTCSSymQyK75+c5y8FwBgLTj5vBkdm5DPZ92NJ0mpVMryM9ANzpzpU3Nzsw4eOKAjR48uyb0dHR35k+3rJbeq/+rpU9q69cscOzwc0TvvvKN/86//pCyK/cWvN6vXnd2xoxZa+LPZrO1rHDBby4K/YufOnRtmM8mhQ4d06NAhcxiwND5uqKFhk+Wqw+jYhOpqa2zPvF66clWStHf3LvNNrnXmTJ8CgcCS/Xq5fXzhFS4hFAgE1NY63/K/eN99LBZTNBZbdqUiEAjowIEDev7ggSUHFbn9jYtXPtzu419cVOPmzWoJ3m++qcD09IxmZ5Nqamow35SXyWQUj884GpwFAHfq9hdj2nJfozlcYGRkVIFAvW3u/eSXn6murs72s3Cj+vGZPrW1tua30hmGoTNn+tTR0aG2tsJ9/Lncu5ZD/exy73LHAG72/gcfqmXHA7avN8OYkiTLvJpKpTQzk7C8D7Ccl19+WW+//bY5vCoU/ABs9ffPr953dXUu20bf3z+gs4OD+T3+xQgEAtrf0aHOzs78wc5i0WhMfX3zBz7L3Q4AwEbV09O7bGGvhdxqGIa6ujqXFOKGYejs2cE7yr1dnZ0r5tZoNKbe3t4VczOA9UXBD6zS7GxC1dUrt5pL0o0bI9qypcmyRUsLZ23t9mu5STQa08DAgILBoOWZ/uHhiCKR+f8tt5LfEgwqEAiodWE1Y7kTCFo4mMldDWC5gx23Si1c49futZVIJGVMTql5i/UwSSeveQBYT04+h0Zuj6pxs/2lRN2Se3PzaA4f7l4xD6qI3Ds0FFYkElmxi241ubecOuqcvq7IvbhbKPiBVRqfmNTmhk3mcAHDmHLUenXx089UX+veFsOVLD74sDpoWK1yLfRznG4bSaczmp62btHPZrOanp5VfX2t+SYAuCuy2axmZhOqq60x31RgdGxCTY0rb0vK+fgXF9USvF+NmzfuQL/c6vnx48cc5zhy7/pymntzM3NqLV7P5F6sBQp+APdcNBrLX56vtbVV+/d3rPoAIXegYRiG5qRl9xECALDR5Qr3g6vMc7ltboFAQG1trQqFQqt6HJlyb26f/mofC8DaouAH7lA2m9XsbMLyDK0kffqrK3rwq7vN4SXGxifUuNl+ZcKthocjBXsIcwcigUUD+3KM3OC+6HzLoWEYCgaD2r+/Y81XLDaKVCqlZDKlujrr1YB0OqPrn9/Qrp07zDcVmJ6esX1tA8DdlslklEqlbVud3Zp7h4cjGhwc1OFF17a/E3eSe3P3L+ci32nuTSSSGrk9quCO7eabCkzFp1Vv81iAUxT8wB1y2mLotHD6+BcXtWf3Lj7oFxiGoeHh+WsG5w4scgKBgILBoFpa5vcTQrp5a0RT8WnbVkI5fE3OzMw6us41ANxN65F7H35on/wO9l7fa7mV9PXcF0/uLY7TNn45fE3OzCZUY3MyC3CKgh8AAADYAHp6em2H7gHAYmtZ8HvMAaDcZDLzw8+spNMZffqrK+bwsm7eum0OAUukUinHr5WLn3xmDi0xORXX3NyGOX8LoMwlEknb3JtIJHXp8jVzeFlOP0/vth+f6VMoFKLYLxHxeNzRayWdzujnw780h5eYMCbJvSh5FPwoexUVFaqsrDSHC1RWerVn905zeFk3b40ouXBpNWAlc3PS2Pi4Obysr+6z38vq9/lUUVFhDgNASfJ6vba5t6rKbzuzJOfmrRFz6J7r6enVd/cvf5173BvJZMpR7q2s9OprbQ+Zw0uQe7ERUPCj7Hk8Hvn99vv/7K4NnPPYo49siP2EuLf8fp8efnCfObwsJ6+9qiq/OQQAJauy0rvmubdUGIahI0eOqqurs2yH0ZaqxsbNjnOvE8zLwUZAwQ8skkgkNRWfNocLxOMzjtv7Ly8MhAFynL4mIp98pnQ6Yw4XMCanlEqlzWEA2FCmp2ds2/sNY0qx6zfM4WV98qn9Nqj1Eo3G9NKRozp+/BjFfomIx+OKXv/cHF7WL391hdwL16HgBxapqvKrtsZ6CmtdXY2jywVJEru6sFgymXL8mmh9eJ/tylZtTY18PuuWWAAodX6/X9XV1iulgUC97WXRcnz3qMsuGo1pYGBAr54+xST8EuLz+ZVMOttq+dBXd9vm3vq6OnIvNhQKfsDE43G+FyudziiRSJrDeU4u9YLy4ff7LF8TdqsKZnYHJQCwEVRWejd87h0ejmhwcFCHD3dT7JeYtc69xbxWgVJAwQ+swJicsjygkKSxsQkZxpQ5vEQymdLPf3HRHEaZ+PDCx+bQskZuj9q+nqam4pqdTZjDAOAK4xOGo9wbj1tvAdBdzL39/QM6OziogwcPmG/CPVLMc3/9+g3b15yTY0KgVFHwAysIbKq3HYTW3Nyk5uYmc3gJv9+nrVu3mMMoE8Ed95tDy7p/e7MCgXpzuEB9fZ2qq6vMYQBwhc0NAUe5t6mpwRxe4m7k3p6eXknSS4e7zTfhHirmud+1a4fta87JMSFQqij4AQecXGN1enrG8uzvtq3N5hDKhNVzn0gkLV83AFCunOZeq5Zsq8/fO/XjM33q6OhQV1en+SaUAKvn3u6YDXATCn7AgfEJw3YiazzuLHkkkyl97LDNDBvX0AcfKpmyHxKUSCRtW1MTiaSMSetWfwBwG6e5N5NZueDPicfja5p7e3p69d39HWprazXfhHvo3PmwObQsJ6+b+PSMJqfi5jCw4VDwAw40bm6wncja3Nxk246thTazFoct3ti4Hn5wr/wOJkUHAvW2ralVVX4FNtm/tgDATZzmXiet1nV1ddqze6c5XDTDMPT8Cy+qq6uTy+6VoMfaHjaHltXc3KTaWpurMtXWaFN9nTkMbDgU/ECRUmnr1QYtDF+zajFsbNxsDsFlrJ7jRCKp0bEJc3gJu9UHACgXa5F76+vurHiLRmN65cRJvXr6FMV+ibrT3Ds3N0fuhetQ8ANFmpqM2+4r9Hq9jhLGzVsja9piiHvrwwsfa2x83BxeVqXX+pJ6qVTKttUfAMqFk9yrOWeXK43GPtcnn35mDluKRmMaGBjQq6dPcdm9EnPuZ2FHW+gkqdqmGySdTmt6ZtYcBjY0Cn6gSI2NDaqosL4Ga1Njg6MWw21bm/XwQ/vMYWxQX3v0ETVuXnl1Iaeqym+7/cPn89neBwDKhZPc6+SqOZLUEnxAeyyuy24WDoc1ODiow0ziL0ntoScdbaGrqvLbtvH7fD7a+OE6FPzAHUgk7Yf0Xbp8zbLF0EmSwsZg9VwmEknduDFiDi8xO5swhwAAizj5nPz0V1fMoQJWn9eL9fcP6P2hsA4ePGC+CSXC6rl0mnudHM8BGxUFP3AHZmbsDzoaGxvWrcUQ997QBx/q5i37gwknq/rZbNby5BAAuIFhGMv+93L/lqRIJKJYLCZJGh8fz7dcWz3O9m3NS2Ja5n6Xr1zV5StXC2I5Pz7TJ0l6iZX9knPufNjRFjqv16vGRuvBuNlsVqmk/YwIYKOi4AfuwOaGTebQEk02iSanJfiAHn6Q9v6Npv0bT1pe63cxu1ZCj8ej+vpacxgAXOX5F17U0ND85dPOnOnLF/OSdOLEyfx/R6MxPf/Cixoejqi/f0A9Pb16992/0S8/mZ99c+LEyfzjvLLo6yTp7Nmf6qUjRwtisVhMZxaK+Jw9u3cVtPdHozH19PSqp6dX7aGQuro6C+6P0vDUt0OOttBVVnptt1iSe+F2FPzAGpmeth6wlk5n9PPhX5rDy0o5HD6De6OY5+fiJ/ZdG3avHQBwi+HhiLo6O3Wmr7DwXs7g4KAOd3erq6tThw93yzAMhUIhhcPzRf7o2JguXLggwzBk3t0/FA6rrbVVo6NjunT5munW5aVSKfX19eX36re1tZrvgnvIae5NpzO2WzpE7kUZoeAH1kA2m5XN7GBVVnr14L7d5vCyrsU+VzT2G3MYJeLS5auOnx8n1322e+0AgFsMDAyora1VLcHgkvZ6s0gkopaWLy9/FwwGFYvFNByJ6OzZQT1/8KB+c+OmhobC6uz8ciU+Go2pJRjU/v0d+o//8T9q184d+dusXPzlZ6oPbFZPTy+T+EvQf/voY0e5t7LS6+g5J/eiXFDwA2vA4/GozqZdWwv7uJ3Yu3uXWoL3m8MoEQ8/tM/x8+PkOXfy2gGAjc4wDE0YhoaHI2ptbV3SXm/W2dmp/v4BaeFrzw4Oqr09pPZQSP0DA/rWt76px772qM709am9PZT/up7eXgWDQQ0PRzQUDquy0mu53z/nsUcf0ZHD/0qHD3czpK8EffMbT5J7gVXwNjQ0vGIOlqpQKKRQ6MsPdKAUZTIZzc4m5LOYGhuPz+jXV2O6775G801LpFIpeW2u2Y71l0qlNDubkN+/8vOaE/nkMzVubpDHs/I51cmpuPw+n+1lpgDALT766ILaQyF95ztPqa2tVWcHB7Vv714NDAxocHBw/j4XLujcuXMaHBzU/v0dGhkZ0eDgoP7qnXf0yvFjCgQC2rdvr6KxmNrbQ2ppCerWyIj+4T/87/K51zAMdXV1qq2tVcFgUBUV0p/92Q/17W//ljLZCkUiwzIMo6B7wIzcWxqKzb3NW6wvzWhMTsnvJ/ei9L377ru6eHF+Xsmdqti5c+eG6Wg5dOiQDh06ZA4DJSWbzSqVSjs6u+zExU8/U9PmBseD4bA+Li1Mcd5bxLWbrczMzKqmptocBgCsQu4qJ04KQyc+/sVFtQTvdzQYDuuH3Ity9fLLL+vtt982h1dl5eUnAKvi8XiKKvbT6YzlpdgeeXAfxX4J2Lt7l+UBh9VzuBwOOABg7Xg8nqKKfbvc+9ijj1DslwByL3DnKPiBdZRIJDUVnzaHCxiTU7px0/467pI0Nj5hDmEdpVIpxW2ev5zr12/YTvw1JqeUSnGtXwBYT7OzCdvP47GxCY2NOcup5N67q5jce/Xadduif8KYtL0P4GYU/MA68vkqVVtjPRSmqbFBwR3bzeFlRWOf255AwNqZmorrxi1nJ2N27dqhWpsBQLU1NfL5Ks1hAMAaqqysVHW19Upuc3OTmput93vnRGOfK+nwknC4c6Nj445z7949O1VZaT1rYVN9ve19ADej4AfWkcfjkcfjfDBMIpFUIpE0h/Mee/QR1dfVmsNYJ42Nmy1bCe2eLzMOOABg/VVWeovKvdPTM5af5Y89+oj8FoN4sba2bW22zL12z5dZMa8FwI0o+IG7ZGoqbttiODo2oXjc+j45N2/dNoewBlKplOO/rZPny5icKurABACwdpx8Bk8Y9vfJcZofUJx4PO74bzthTCmTsW7Rd/K8A+WCgh+4S+rr62xbDO/f3qympgZzeFk3b43QYrgO5uaksfFxc3hZTp6vwKb6ooY4AkCpicViBf+ORCIKh8OWsXA4nP+fJBmGUXB77t+GYeRjOZFIRJFIpCC2+Gcw/zyL/5173HA4PP8Yc1lduPBR/nvHYrH89zQMQ7FYTPdvb1YgUJ9/DCs3HbaaozjJZKqo3Gu3ha6+ro7cCyyg4AfuomLaykZuj1oOmaHFcH34/T49/OA+czgvkUhq1OGgJwDY6KLRmL7/7HP5f/f09GpoKKyJCUPPv/CiJOnMmT4ND0cUjcZ04sRJxWIx/fhMn6LRmCYmDEWjMfX09Oa/xjAMvXLipCYmDJ04cbKg6D9y5KiGhyMaHo6op6c3H3/+hRc1NDRftC+OS1J//0D+vyORiPr7BxSNxhSNxnT27KCGhsKKRmN6/oUXNTFh6MyZPmnh5zZzknux9hobN9vmXrsuycWKOd4C3I6CH7gHxsYnbFvNvF6vbctazuWF69Ri9Zz+DTOZjCq91nvxE4mkJqfi5jAAbDh9fX06fuxYvmgOBAI6ePCA9u/v0OHubg0ODkqSuro61dXVqc7OTk1MGGoJBtXeHlJ7eyhf0Le1ter4sWOSpIqFf3d3d+e/19mzg+rsnH+crq5OhUKhfPxwd/eSroKVtLa25r+3JIVCIXV1dWrPnj3aEQxqbqEDYVMgoGAwWPC1xeTeTz79zBxCEeLxeFG5187kVFwzswlzGCh7FPzAPdC4ucG21ayp0f4+OXPmAIqSTKYc/w1ra2tsWz+rqvzaVF9nDgPAhtTW1qozfX0yDEOBQKAgHggElsQaGgIaXlhpHx6OqK2tVQcOHNDZs4Pq65tfVe/u7tbZs4M6cfJk/msNw1BLy3wBfuTI0fzJhLODg2pra5VhGMtuATAbCofzq/yS1NPbqyNHjury5cva3BDQ8wcP6JUTJ/X8wQPmLy0q99YxRPeO+Hz+onKvXRv/pvo61VRXmcNA2aPgB+6xuTn7dHfjxohli6HVNFvY8/t9ln/DRCKpGzfs9206eS4BYKPo7x9QIBDQ0FA4X9ifXSjCJenEiZPasSNYsN/+xEKrfnsopMOHu9XeHtLZs4OKxWI6ePCAgsGgzp4d1ODgoA4ePKCuzs78yn0wGMy32Z8+fUrR2HxbfoWU/xkWt++vZH9Hhw4f7lZbW6sk6XB3t06fPqWWhdX8QCCgx772NdNXLXXp8jXL3Nuy4wFzCEVwkntHbo+awwXm5uYcrf4D5czb0NDwijlYqkKhUL69C3CL8QlD1VVVqqhYeb9ZMpVWXZ31mW0trFRHLn6qbVubzTdhGR9e+FgP3L/NHF6R1apPKpVSfHrG8j4AsJEMDg7mC+f29pAuXLigrs5O9fb26sKFC3r88cf1xBOPa+/evert7dW5c+fU0dGhrVub1T8woHPnzmlwcFD/4l/8kc709encuXPaFAjof/jDf6aPLlzQO++8Iy1sB5CklpagEomEXn/9dV24cEHNzc2aNAx1dXXmW/Q/unBBVVVVGhgYyHcAfHThggYH508itLa25r93JBJRMBhUc3Oztm5t1sjISP4kwNVrMT3++D+wzL2SyL1rrNi/ldfjkc9iXlEymdLMbILcC9d59913dfHiRXN4VSp27ty5YZakDh06pEOHDpnDABa5eWvEcSItd/ytAABrgXziHH8rwN7LL7+st99+2xxeFVr6gRKSSFoP8pOkT391xRwqQBJ1zupvlU5ndPnKNXN4CSfPGQCgdNl9jqfTGX36Gbl3rVj9rdLpjK5eu24OL5FKp80hACug4AdKyMyM/XTZ4I7t5tCyksmUPv7F2rQCucnQBx8qmUqZw0tUVnq1fdvKByWSlM1mlUpy0AEAG9nkpPVVVSorvQo+4Cz3jo1NkHuXce68syssVFZ61bylyRwukMlklJi1PkkD4EsU/EAJ2dywyRxawm5KbY7f71PLjvvN4bL38IN75bfYD7iY3d/a4/Govp4pzQCwkW25r9EcWsIuH+Q0NjZoz+6d5nDZe6ztYXNoRXZ/a6/XS+4FikDBD5SoWZtrycbjM7r4ifU1gBsbN5tDZc/ub/Lz4V+aQ0vYPTcAgI1penrGHCoQj8/Ybq2rr+OyrGZ2uff/9/GXV3pYCbkXWB0KfqAEZbNZZbJZc7hAXV2NHnl4nzm8rGjs87JuMRz64EONjY+bw8v6WttD5tAS7B0EAPfJZrO214Wvq6vRg1/dbQ4vKxr7XJ98an1i3s3O/SzsaAudJP2Dx+avnrASJ8dFAJZHwQ+UII/HozqbljYzy2sFBx/Qww85OzngRk8+8ZgaN6+8umD1t1vOpnpWbwDAbVaTe620BB/QHovrzLtde+hJyy10xeTetX5ugHJCwQ+UuEwmY9tiaBhTunFzxBwuYJV03c7ud7967boSCesBQJNTcc3N2a39AADcwEnuHR2bUOz6DXO4gF3+cTO73/3SlWu2Rb8xOWUOASgSBT9Q4ioqKuTxWL9VA4F6x9P7y6XF8O8/+lg3b1mfBMnZu2enqqr85nCBSq9XFRUV5jAAwIUqKirk9XrN4QJNjQ2Oc+/lK1fLIveeOx92vIXuoa/uVmWl9d/YV1lpDgEoknUVAeCe83g8qq6uModXlE5nLFerW4IP6OEH3d/e//UnHrO91q/V38mspqbaHAIAuJTH47E9EbyYXU7Zs3tXWeTep74dstxCl0gkbVf1FyP3AneOgh/YQBKJpKbi0+ZwgbGxCcXj1m2IOSmHw3Q2imJ+n5Hbo5YHZ1poJSzmwAQA4D6zswnb3Dtye5Tc68Do2ISSSevcO2FMsoUOWEMU/MAG4vNVqrrKerW/ublJTU0N5vCyrsU+VzT2G3N4wyrm97l/e7MCgXpzuEB1VZVtuyEAwN0qKytVW2M9MO7+7c2Oc+9nV646zlUbwf/984uOf5/7tzer1mb4Xk11NVvogDVEwQ9sIB6Pp6gCdHp6xnIVe+/uXWoJ3m8Ob1h2v08ikbT8e5j5/dYDhwAA7ldZ6ZXH47wAHbk9atkd9siD+yxz1Ubz9Sces/x97I5FzMi9wNqi4Ac2qOnpGdsJwrNFJNhiWvJKSSqVUtym1TInk8nYtlwak1NFHZgAAMqHMTllm3s1N59vnCiH3Gs330ALf9dUKm0OA1gDFPzABlVbW6PqauthNk2NDY6HDn125arjqfal5Frsc0Wvf24OL6u2tsa25bK+rs7x3wwAUF7q6+psc29zc5PjPHLxl585nmpfSq7FPtcNh8cMgUC97Ra6+ro6+XxM5AfWAwU/sIEV02J448aIbYuh1VT7UrXXZvJxIpHUyO1Rc3hFxfxNAQDlxeOpKCpP2LX3P/boI5ZT7UvV3t27tHf3LnM4j9wLlA4KfsAFxicM23a52toax/v/x8YnzKGSUkwrodfrVZXfeqVlenpGk1NxcxgAgBV9MTpm24bu9XrLMvdKUp3NcL6pqbhmZhPmMIA1RsEPuMDmhoBt+6BdO91iN2+O2F6C6F6amoo7biWsrPTa/u61tTXaVF9nDgMAsKL7mhpt29CbGq23kS0WjX2uZAnv6R8dG3ece6uq/LbT+Ovr61RTbX3lIQB3joIfcBkn16799FdXzKECDz+0T/V1teZwyWhs3GzZSphOZ3T12nVzeAknfysAAOw4ySd2ufexRx+R31e6E+q3bW22zL2JRNI2987NzTn6WwFYOxT8gMuMTxiW+wUlKbhjuzm0opu3bptD90QqlXL8s1RWetW8pckcLpBIJGnjBwCsifEJw7aQ3Yi5Nx6PO/5Zqqr8trl3djZB7gXuMgp+wGUaNzfY7he0a7Nb7OatkZJoMZybU1GTjO1+x6oqvwKbrFv9AQBwonFzgyoqrAfP2eWlxUrlqjlzWtvcW1NTTe4F7jIKfsDFUmnrYULpdGbDtBj6/T7LafySdPGTz8yhJez+JgAA3Am7PJNIJHXp8jVzuMBjjz5iDt0T9XV1trn358O/NIcKzM3NKZOx7jwEsH4o+AEXi09NW7YYVlZ6tWf3TnN4RZ98al9Qr7VivudX9+02hwpks1nNTM+awwAArJmJiUlzqEBVlV+7du4wh1dUTB5cC/F4XJevXDWHV/S1tofMoQLZbFYzM0zjB+4VCn7AxTZvDti2GNq1/y/mu8sr/clkqqjvafe7eDwe24n9AADciS33NZpDS9jlq8Xq7vIQXZ/Pr5WXCorn9XpVX393fwcAX6LgB8rErM21buPxGdv2fqvpvOvB7/fZfs9f/uqK7ZBCu98dAID1YJd/DGNKses3zOECLTseMIfWFbkXcBcKfqBM2A3eq6ur0YNftW6Jz0kmU/r5Ly6aw2vmwwsfm0Mreuiruy1XSrLZrDLZrDkMAMC6cpJ/AoF6x9P71zv3FvPYTnKv3QkBAHcHBT9QJoqZiptOZ5RIJM3hPL/fp61bt5jDaya4435zqEA6nXF8IOHxeFRnMzUYAIC1Vmz+ude51+6xneZdLfzutPEDpYGCHygzmUxGU/Fpc7jA2NiEDGPKHC6wbWuzObRm7B575PaopqdnzOEC09MzlgMLAQC4WzKZjG3eGhubUDxufR+7/Hgn7B77+vUblickJMmYtD52AHD3UfADZaaiosJ2kF9zc5Oam5vM4WXF43F9XEQb4EqGPvjQdttBzv3bm22H7zn5PQEAuBsqKipsB+E1NzepqanBHF7W2NjEmkzvP3c+bA6taNeuHaqq8pvDBXyVleYQgHuMgh8oM8W2GE5Pz1ie0a+rq1OLTQu+E1979GH5LSbyJxJJy5/DrKam2hwCAOCeWE3utWqhb2xssN3+5sRjbQ+bQwXsjgHMyL1A6aHgB8pYMpWybe+Px2eUyax80CFJjY2bzaGi1dfVmUMFEomkbavj5FScNn4AQElLJJJrknvt8qYTdvnbyc8xYUySe4ESRsEPlLFKr1fVVVXmcIHm5ibVOlyViMY+L6rFcOiDDzU2Pm4OLysQqLdtdazy+2njBwCUNK/Xa9nRpoXca9c+n1Ns7j33s7DjLXROjgH8Ph+5FyhhFPxAGfN4PJaX1TEbuT1q2WLYEnxAe2yu3bvYk088psbNK68uJBJJjY5NmMMr8vutD6AAALjXKiu9ReWrtc697aEnLU84FJt7aeMHShsFPwBpYZ+e3QRhr9dr29pndRBh5uS+lV7rExLG5FRR+wsBACgVTnKv5uZPElhxkk9znNy32qa7wJicUiqVNocBlCAKfgCSpNraGlVXW5+lb2psuOMWw7//6GPdvDViDi+rqspvO42/vq7O8c8EAEApqa6uts29Tq+aI0mXr1zVpStXzWGdOx92vIWuqspv28ZfX1cnn4+J/MBGQMEPIM/jcb4H79NfXbFtMXz4wX3msL7+xGOW1/pNJJK6ccPZCQEV+TMDAFBKPJ6KovLYp7+6Yg4V2LN7l/Yu097/1LdDtlvoyL2AO1HwA1hifMKwbZPfsqXJtsUwJ+VwOJAcrupPTcUVt2uBBABgA3GSe7dvW/mEuVkxudfr9aqx0XowLlvogI2Jgh/AEpsbArZt8k02BwaLXYt9rmjsN+bwimxbCevrirqeMQAApc5J7rU7Ib7YZ1euOs69lZVe+++9qd72PgBKDwU/AEt219ZNpzO6+MnSvfqL7d29Sy3B+83hAnaPIQc/CwAAbmCX79LpjC5dvmYOF3jkwX2WuTedzthuEQCw8VHwA7A0PmFYTuKtrPRqz+6d5nDR7B4jkUhqcipuDgMA4DrjE4blnJzKSq927dxhDhfFyWPEp2fIvcAGR8EPwFLj5gbbSbxr0eJn9xhVVX4FNjlvZQQAYKNq3NxgOyfH7nYn7HJvXW2NNtXXmcMANhAKfgCOpdIrr/RLUjw+U1R7YOSTzyxXMCQpk7G+HQAAN7PLvYYxVXTutTI3N0fuBVyEgh+AY/Gpact9hXV1NXrwq7vN4RW1PrzPcoUik8koHmcaPwCgfE1MTFrm3kCgvujcayWdTmt6ZtYcBrBBUfADcGzz5oAqKpxdezedziy7er9cbCVer7eoicQAALjNlvsa72ru9fl8tPEDLkLBD2BVEknra/Eak1O6cXPEHNb16zc0PW29aj87mzCHAAAoe3b5cWxsQmNjE+awrl67blv02+V1ABsTBT+AVZmZsT7oaGpsUHDHdnNYu3btUG1tjTmcl81mbQ9KAAAoN9lsVrMJ66K8ublJzc1N5rD27tlpuYUum80qlbSeFQBgY6LgB7Aqmxs2mUMrSiSSStgcpOR4PB7V19eawwAAlDWPx1NU7p2eniH3AqDgB3BnstmsbYu+YUzZDt+b4jq/AAA4kslkbNv74/EZ22n7U/FpcwiAy1DwA7hjK88Ontfc3KSmpgZzuECFh48jAACcqKioUCabNYcLNDc3WW6h08LjAHA3jrAB3BGPx6M6mwMKJ9biMQAAKAfkXgBOUfADWDOZTMa2vX+xyam45bWFAQCAtWJz74QxSe4FyggFP4A1U1FRIa935SnAZn6fj3ZCAADuQEVFhSorK83hFZF7gfJCwQ9gzXg8HlVV+c3hFRVzXwAAsJTH45Hf7zOHV1RTU20OAXAxCn4A6yKRSC47/XdqKq5Uimv9AgCw1mZnE8u2908Yk+ReoExR8ANYFz5fpWprlg4Dqq6uls/nvPUQAAA4U1lZqerqpSv4m+rryb1AmaLgB7AuPB6PPJ6lewQrK53v8QcAAM5VVnqXzb3LxQCUBwp+AOtuaiqu2dmEOQwAANaJMTmlRCJpDgMoMxT8ANZdfX2dqqurzGEAALBOApvqGY4LgIIfAAAAAAA3ouAHAAAAAMCFKPgBAAAAAHAhCn4AAAAAAFyIgh8AAAAAABei4AcAAAAAwIUo+AEAAAAAcCEKfgAAAAAAXIiCHwAAAAAAF6LgBwAAAADAhSj4AQAAAABwIQp+AAAAAABciIIfAAAAAAAXouAHAAAAAMCFKPgBAAAAAHAhCn4AAAAAAFyIgh8AAAAAABei4AcAAAAAwIUo+AEAAAAAcCEKfgAAAAAAXIiCHwAAAAAAF6LgBwAAAADAhSj4AQAAAABwIQp+AAAAAABciIIfAAAAAAAXouAHAAAAAMCFKPgBAAAAAHAhCn4AAAAAAFyIgh8AAAAAABei4AcAAAAAwIUo+AEAAAAAcCEKfgAAAAAAXIiCHwAAAAAAF6LgBwAAAADAhSj4AQAAAABwIQp+AAAAAABciIIfAAAAAAAXouAHAAAAAMCFKPgBAAAAAHAhCn4AAAAAAFyIgh8AAAAAABei4AcAAAAAwIUo+AEAAAAAcCEKfgAAAAAAXIiCHwAAAAAAF6LgBwAAAADAhSj4AQAAAABwIQp+AAAAAABciIIfAAAAAAAXouAHAAAAAMCFKPgBAAAAAHAhCn4AAAAAAFyIgh8AAAAAABei4AcAAAAAwIUo+AEAAAAAcCEKfgAAAAAAXIiCHwAAAAAAF6LgBwAAAADAhSj4AQAAAABwIQp+AAAAAABciIIfAAAAAAAXouAHAAAAAMCFKPgBAAAAAHAhCn4AAAAAAFyIgh8AAAAAABei4AcAAAAAwIUo+AEAAAAAcCEKfgAAAAAAXIiCHwAAAAAAF6LgBwAAAADAhSj4AQAAAABwIQp+AAAAAABciIIfAAAAAAAXouAHAAAAAMCFKPgBAAAAAHAhCn4AAAAAAFyIgh8AAAAAABei4F/B4OCgOQQAAAAAwIZBwb+Mnp5ezc1JZ870mW8CAAAAAGBDoOA36enpVVdXp/bv71AoFKLoBwAAAABsSBT8i+SK/WAwKElqa2ul6AcAAAAAbEgU/AvMxX4ORT8AAAAAYCOi4Lco9nMo+gEAAAAAG03ZF/x2xX4ORT8AAAAAYCMp64LfabGfQ9EPAAAAANgoyrbgd1LsR6Mxc4iiHwAAAACwIZRlwW9X7BuGoZ6eXj39zDPmm6RVFP3T09P6y7/8K/3lX/6V3nvv/Xz8/Pn3dO1aNP/vCxcuqK/vP+Tvc/78e7p9+4v8109PT+fvCwAAAACAlbIr+O2K/bNnB/Xdp59RT2+vDMMw35xXTNE/PT2tjy5c0EMPPaTz731Z5L/7N3+j/+ONNyRJf/mXf6UPP7qgb37zm7p27Zr+8i//Su+//75u376tH/7P/4vmJNXW1poeGQAAAACA5ZVVwX/27KACgYBlsf/Ciy8qFlvayr+ctrZWxWIxDQ9HzDct8cUXX+j999/X9PS0amtrdf78e9q5c6e0cELgwoUL6vi939PDDz+kf/pPn9O3vvUtSdL/8cYbqq2t1T/5g++ZHhEAAAAAgJWVVcG/f3+HJgxD/f0D5pukhdvfO39enZ2d5puW1dPTq9bWVrW1tZpvWqKlpUXf+9739PBDD+nChQt6//0vW/vfffdvVLNo9X56ejrfvv/4449renpan3zyy/ztAAAAAADYKauCX5JeOtytaCy2YtHf0hLUq6dP6a9/8pMVOwG0UOwHg0F1dTk7OfDFF1/ovffe07VoVNPT07r9xRf61je/qT/43vf07t/8jR5//HH9u3//7/Xee+/p3/27f6+PLlyQJD380EP6p889p77/8B/Yww8AAAAAcMzb0NDwijlYqkKhkEKhkDlctPb2kM4ODioWi624Or91a7MOHjxgDkurKPYlKRAIqLa2Vk88/rieeOJxPfroo9q7d4+2bNmi7du364knHtc//If/nW7f/kKPP/64vv3tb+m++7Zoy5Yt2rmzRffdd59qa+vYxw8AAAAALvbuu+/q4sWL5vCqVOzcuXPOHCxVhw4d0qFDh8zhVXu1p1ctRRbuqyn2AQAAAABw4uWXX9bbb79tDq9K2bX0L2bX3m9GsQ8AAAAA2CjKuuBXEUU/xT4AAAAAYCMp+4JfDop+in0AAAAAwEZDwb9gpaKfYh8AAAAAsBFR8C9iLvop9gEAAAAAGxUFv0mu6H/+hRcp9gEAAAAAGxYF/zJeOtytw93dFPsAAAAAgA2Lgn8FbW2t5hAAAAAAABsGBT8AAAAAAC5EwQ8AAAAAgAtR8AMAAAAA4EIU/AAAAAAAuBAFPwAAAAAALkTBDwAAAACAC1HwAwAAAADgQhT8AAAAAAC4EAU/AAAAAAAuRMEPAAAAAIALUfADAAAAAOBCFPwAAAAAALgQBT8AAAAAAC5EwQ8AAAAAgAtR8AMAAAAA4EIU/AAAAAAAuFDFzp0758zBUhUMBrVjxw5zGAAAAAAAV7h48aIMwzCHV2VDFfwAAAAAAMAZWvoBAAAAAHAhCn4AAAAAAFyIgh8AAAAAABei4AcAAAAAwIUo+AEAAAAAcCEKfgAAAAAAXIiCHwAAAAAAF6LgBwAAAADAhSj4AQAAAABwIQp+AAAAAABciIIfAAAAAAAXouAHAAAAAMCFKPgBAAAAAHAhCn4AAAAAAFyIgh8AAAAAABei4AcAAAAAwIUo+AEAAAAAcCEKfgAAAAAAXIiCHwAAAAAAF6LgBwAAAADAhf7/gal/E6LHWtgAAAAASUVORK5CYII=;" vertex="1" parent="1">
                    <mxGeometry x="59" y="570" width="731.4" height="370" as="geometry"/>
                </mxCell>
                <mxCell id="34" value="" style="shape=flexArrow;endArrow=classic;startArrow=classic;html=1;entryX=0.5;entryY=1;entryDx=0;entryDy=0;entryPerimeter=0;" edge="1" parent="1" target="15">
                    <mxGeometry width="100" height="100" relative="1" as="geometry">
                        <mxPoint x="540" y="560" as="sourcePoint"/>
                        <mxPoint x="620" y="460" as="targetPoint"/>
                    </mxGeometry>
                </mxCell>
                <mxCell id="35" value="" style="shape=flexArrow;endArrow=classic;html=1;entryX=0.18;entryY=0.966;entryDx=0;entryDy=0;entryPerimeter=0;" edge="1" parent="1" target="25">
                    <mxGeometry width="50" height="50" relative="1" as="geometry">
                        <mxPoint x="290" y="700" as="sourcePoint"/>
                        <mxPoint x="340" y="650" as="targetPoint"/>
                        <Array as="points">
                            <mxPoint x="280" y="690"/>
                        </Array>
                    </mxGeometry>
                </mxCell>
                <mxCell id="36" value="" style="shape=flexArrow;endArrow=classic;html=1;entryX=0.323;entryY=0.972;entryDx=0;entryDy=0;entryPerimeter=0;" edge="1" parent="1" target="28">
                    <mxGeometry width="50" height="50" relative="1" as="geometry">
                        <mxPoint x="640" y="720" as="sourcePoint"/>
                        <mxPoint x="690" y="670" as="targetPoint"/>
                    </mxGeometry>
                </mxCell>
            </root>
        </mxGraphModel>
    </diagram>
</mxfile>